<?xml version="1.0" encoding="utf-8"?>
<!-- Generator: Adobe Illustrator 27.5.0, SVG Export Plug-In . SVG Version: 6.00 Build 0)  -->
<svg version="1.1" xmlns="http://www.w3.org/2000/svg" xmlns:xlink="http://www.w3.org/1999/xlink" x="0px" y="0px"
	 viewBox="0 0 3710 3710" style="enable-background:new 0 0 3710 3710;" xml:space="preserve">
<g id="Background">
	<g>
		<g>
			<rect style="fill:#FFFFFF;" width="3710" height="3710"/>
		</g>
	</g>
</g>
<g id="Illustration">
	<g>
		<linearGradient id="SVGID_1_" gradientUnits="userSpaceOnUse" x1="3478.1533" y1="3640.179" x2="1531.1227" y2="1567.5339">
			<stop  offset="0" style="stop-color:#DAE3FE"/>
			<stop  offset="1" style="stop-color:#E9EFFD"/>
		</linearGradient>
		<path style="fill:url(#SVGID_1_);" d="M2893.559,2808.643c-71.876,74.088-136.189,117.639-185.429,150.517
			c-480.227,320.652-1029.179,228.232-1198.901,196.643c-273.826-50.965-504.973-86.918-703.57-266.342
			c-451.272-407.706-429.323-1258.211-84.496-1785.062c40.886-62.469,385.19-572.835,935.331-644.75
			c13.456-1.759,23.495-2.761,32.289-3.692c85.105-9.011,612.487-56.568,1042.513,303.709
			c61.556,51.572,160.618,144.594,252.48,286.468C3319.668,1564.891,3320.732,2368.329,2893.559,2808.643z"/>
		<g>
			<g>
				<path style="fill:#BDD0FB;" d="M809.289,1243.576c5.015-9.109,20.412-4.775,20.743,5.851
					c3.202,102.734,20.626,372.607,114.546,542.386c152.923,276.44,199.57,662.046,16.399,796.71
					C960.976,2588.524,262.944,2236.157,809.289,1243.576z"/>
				<path style="opacity:0.43;fill:#FFFFFF;" d="M797.471,1384.977c-0.241,2.167-0.456,5.308-0.667,8.063l-0.522,8.555
					l-0.832,17.146c-0.508,11.436-0.964,22.879-1.334,34.326c-0.733,22.893-1.07,45.798-1.268,68.701
					c-0.393,45.802-0.066,91.607,1.36,137.372c2.845,91.527,8.956,182.918,19.245,273.816c5.43,45.412,11.537,90.734,19.11,135.821
					c7.777,45.042,16.565,89.903,26.953,134.408l8.233,33.263c1.423,5.532,2.674,11.113,4.235,16.604l4.612,16.499l4.565,16.518
					l2.281,8.261l2.529,8.183l10.108,32.749l10.976,32.47c1.892,5.391,3.552,10.874,5.635,16.192l6.097,16.021
					c7.81,21.508,17.086,42.4,25.824,63.574l0.049,0.119c0.571,1.383-0.089,2.969-1.472,3.541c-1.334,0.55-2.855-0.048-3.476-1.329
					l-14.99-31.095c-5.13-10.322-9.315-21.044-13.92-31.599l-6.78-15.891c-2.311-5.278-4.199-10.717-6.318-16.071
					c-4.08-10.766-8.381-21.463-12.283-32.301c-15.419-43.425-28.524-87.635-40.107-132.232
					c-11.187-44.694-20.684-89.79-28.795-135.124c-7.751-45.394-14.356-90.973-19.493-136.715
					c-5.064-45.746-9.015-91.603-11.702-137.529c-0.611-11.484-1.35-22.962-1.859-34.449l-1.469-34.464l-0.904-34.481l-0.508-34.484
					c-0.39-45.978-0.03-91.958,1.697-137.893c0.98-22.965,2.106-45.921,3.625-68.854c0.782-11.466,1.568-22.93,2.562-34.385
					l1.624-17.179l0.918-8.591c0.396-2.948,0.581-5.532,1.251-9.032c0.277-1.452,1.68-2.405,3.133-2.128
					c1.38,0.264,2.311,1.545,2.159,2.917L797.471,1384.977z"/>
			</g>
			<g>
				<path style="fill:#91B3FA;" d="M922.986,2969.873c0,0,77.017-164.978-16.876-428.67
					c-87.116-244.661-312.209-823.919-307.435-1071.838c0.212-10.983-14.85-16.177-19.65-6.75
					c-51.488,101.121-159.111,366.646-96.503,726.04C563.26,2652.114,922.986,2969.873,922.986,2969.873z"/>
				<path style="opacity:0.45;fill:#FFFFFF;" d="M572.471,1687.423c-3.651,12.852-5.707,26.108-7.853,39.256l-2.634,19.833
					l-1.826,19.918c-0.746,6.617-0.845,13.303-1.284,19.945c-0.271,6.658-0.924,13.283-0.852,19.955l-0.211,19.973
					c-0.01,3.327-0.125,6.651-0.049,9.979l0.29,9.981c0.436,13.305,0.521,26.604,1.776,39.868
					c1.099,13.262,1.67,26.543,3.456,39.739l2.294,19.813c0.829,6.595,1.35,13.224,2.568,19.77l6.434,39.358
					c2.393,13.072,5.298,26.057,7.919,39.082c1.377,6.501,2.618,13.029,4.103,19.506l4.952,19.321
					c3.36,12.862,6.47,25.786,10.029,38.589l11.527,38.185l5.747,19.093l6.635,18.816l13.28,37.622
					c9.21,25,18.875,49.977,28.395,74.93c9.88,24.832,19.4,49.804,29.58,74.521l15,37.181l15.254,37.087
					c10.118,24.744,20.618,49.342,30.987,73.997l31.234,73.953c10.458,24.649,20.909,49.304,31.03,74.133
					c5.15,12.369,10.147,24.819,15.112,37.282c2.469,6.239,5.037,12.428,7.424,18.705l7.081,18.861
					c4.846,12.512,9.104,25.292,13.58,37.96c2.304,6.307,4.209,12.778,6.255,19.187c1.984,6.432,4.12,12.808,5.975,19.281
					c7.44,25.893,13.323,52.315,16.304,79.152c0.149,1.355-0.828,2.576-2.182,2.727c-1.287,0.144-2.456-0.73-2.697-1.979
					l-0.026-0.132l-3.763-19.573l-0.937-4.885c-0.353-1.621-0.825-3.22-1.231-4.831l-2.529-9.646
					c-3.034-12.924-7.381-25.54-11.25-38.246c-2.08-6.317-4.443-12.555-6.648-18.834c-2.271-6.26-4.39-12.561-6.922-18.738
					c-4.928-12.395-9.616-24.855-14.921-37.117c-5.173-12.301-10.296-24.617-15.647-36.866
					c-5.275-12.268-10.583-24.525-16.053-36.731l-32.664-73.314l-32.624-73.423c-10.639-24.591-21.391-49.134-31.782-73.844
					c-21.189-49.243-41.052-99.067-60.676-148.972l-14.386-37.561c-4.694-12.577-9.774-24.934-14.059-37.724l-13.122-38.224
					l-6.546-19.113l-5.665-19.405l-11.296-38.812c-3.357-13.049-6.259-26.225-9.408-39.325l-4.635-19.672
					c-1.377-6.595-2.509-13.245-3.776-19.864l-3.704-19.875c-1.152-6.64-2.664-13.212-3.463-19.912
					c-8.13-53.3-12.243-107.242-11.194-161.105l0.116-10.095c0.046-3.364,0.366-6.726,0.535-10.088l1.231-20.154
					c0.271-6.721,1.268-13.404,1.882-20.1c0.795-6.683,1.185-13.397,2.344-20.037c3.634-26.631,8.893-53.143,17.608-78.559
					c0.053-0.159,0.228-0.244,0.386-0.19c0.155,0.053,0.238,0.216,0.195,0.371L572.471,1687.423z"/>
			</g>
		</g>
		<g>
			
				<linearGradient id="SVGID_00000007422125653720179450000000230753537453130663_" gradientUnits="userSpaceOnUse" x1="939.1794" y1="3983.8508" x2="959.1068" y2="5974.9878" gradientTransform="matrix(0 -1 1 0 -3118.2393 2777.9941)">
				<stop  offset="0" style="stop-color:#09005D"/>
				<stop  offset="1" style="stop-color:#1A0F91"/>
			</linearGradient>
			<path style="fill:url(#SVGID_00000007422125653720179450000000230753537453130663_);" d="M2844.299,575.182V3082.52
				c0,23.021-18.836,41.857-41.857,41.857H919.918c-23.021,0-41.857-18.836-41.857-41.857V575.182
				c0-23.021,18.836-41.857,41.857-41.857h1882.524C2825.463,533.325,2844.299,552.161,2844.299,575.182z"/>
			
				<linearGradient id="SVGID_00000018214851388467108160000011705700973243100305_" gradientUnits="userSpaceOnUse" x1="3110.2952" y1="-881.3047" x2="2788.8501" y2="-181.3841">
				<stop  offset="0" style="stop-color:#FF928E"/>
				<stop  offset="1" style="stop-color:#FE7062"/>
			</linearGradient>
			<path style="fill:url(#SVGID_00000018214851388467108160000011705700973243100305_);" d="M2762.179,650.144v2364.665
				c0,23.021-18.836,41.857-41.857,41.857H1007.609c-23.021,0-41.857-18.836-41.857-41.857V650.144
				c0-23.021,18.836-41.857,41.857-41.857h1712.712C2743.343,608.287,2762.179,627.122,2762.179,650.144z"/>
		</g>
		<g>
			<g>
				<g>
					
						<linearGradient id="SVGID_00000044893667896668448510000003042291093651952311_" gradientUnits="userSpaceOnUse" x1="1734.2327" y1="2155.5662" x2="1749.8771" y2="2502.3528">
						<stop  offset="0" style="stop-color:#09005D"/>
						<stop  offset="1" style="stop-color:#1A0F91"/>
					</linearGradient>
					<path style="fill:url(#SVGID_00000044893667896668448510000003042291093651952311_);" d="M1778.097,2388.074h-75.008
						c-6.267,0-11.394-5.127-11.394-11.394v-160.256c0-6.267,5.127-11.394,11.394-11.394h75.008c6.267,0,11.394,5.127,11.394,11.394
						v160.256C1789.491,2382.947,1784.364,2388.074,1778.097,2388.074z"/>
					<path style="fill:#7D97F4;" d="M1745.136,3104.821h-6.453c-19.256,0-35.011-15.755-35.011-35.011v-224.907
						c0-19.256,15.755-35.011,35.011-35.011h6.453c19.256,0,35.011,15.755,35.011,35.011v224.907
						C1780.147,3089.066,1764.392,3104.821,1745.136,3104.821z"/>
					<path style="fill:#7D97F4;" d="M1709.052,2472.264h-5.795c-11.272,0-20.495-9.223-20.495-20.495V2240.94
						c0-11.272,9.223-20.495,20.495-20.495h5.795c11.272,0,20.495,9.223,20.495,20.495v210.829
						C1729.547,2463.041,1720.324,2472.264,1709.052,2472.264z"/>
					<path style="fill:#7D97F4;" d="M1783.045,2475.462h-5.795c-11.272,0-20.495-9.223-20.495-20.495v-210.828
						c0-11.272,9.223-20.495,20.495-20.495h5.795c11.272,0,20.495,9.223,20.495,20.495v210.828
						C1803.539,2466.239,1794.317,2475.462,1783.045,2475.462z"/>
					
						<linearGradient id="SVGID_00000029013593377585524060000010810936381642943879_" gradientUnits="userSpaceOnUse" x1="1466.0048" y1="2808.0383" x2="1920.8806" y2="3386.3296">
						<stop  offset="0" style="stop-color:#4F52FF"/>
						<stop  offset="1" style="stop-color:#4042E2"/>
					</linearGradient>
					<path style="fill:url(#SVGID_00000029013593377585524060000010810936381642943879_);" d="M1926.088,3194.153
						c0.283-3.775,0.43-7.586,0.43-11.43v0c0-83.968-68.701-152.67-152.669-152.67h-59.039c-83.968,0-152.669,68.701-152.669,152.67
						v0c0,3.844,0.147,7.655,0.43,11.43H1926.088z"/>
					<path style="fill:#91B3FA;" d="M1896.349,3191.834c0.236-3.147,0.359-6.325,0.359-9.53v0
						c0-70.01-57.281-127.291-127.291-127.291h-49.224c-70.01,0-127.291,57.281-127.291,127.291v0c0,3.205,0.123,6.383,0.359,9.53
						H1896.349z"/>
					
						<linearGradient id="SVGID_00000158726006552421707450000009386512641384075691_" gradientUnits="userSpaceOnUse" x1="2028.1395" y1="1937.35" x2="1570.9" y2="2904.5864">
						<stop  offset="0" style="stop-color:#4F52FF"/>
						<stop  offset="1" style="stop-color:#4042E2"/>
					</linearGradient>
					<path style="fill:url(#SVGID_00000158726006552421707450000009386512641384075691_);" d="M1830.749,2744.929h-164.991
						c-6.267,0-11.394-5.127-11.394-11.394v-408.241c0-6.267,5.127-11.394,11.394-11.394h164.991
						c6.267,0,11.394,5.127,11.394,11.394v408.241C1842.143,2739.802,1837.016,2744.929,1830.749,2744.929z"/>
					<path style="fill:#7D97F4;" d="M1788.473,2719.149h-88.287c-21.183,0-38.514-17.331-38.514-38.514v-302.439
						c0-21.183,17.331-38.514,38.514-38.514h88.287c21.183,0,38.514,17.332,38.514,38.514v302.439
						C1826.987,2701.817,1809.656,2719.149,1788.473,2719.149z"/>
					
						<linearGradient id="SVGID_00000169538104344547149850000007000461012583747479_" gradientUnits="userSpaceOnUse" x1="1477.8474" y1="2325.9636" x2="1973.8551" y2="3369.5425">
						<stop  offset="0" style="stop-color:#4F52FF"/>
						<stop  offset="1" style="stop-color:#4042E2"/>
					</linearGradient>
					<path style="fill:url(#SVGID_00000169538104344547149850000007000461012583747479_);" d="M1822.899,2993.63h-157.141
						c-6.267,0-11.394-5.127-11.394-11.394v-191.212c0-6.267,5.127-11.394,11.394-11.394h157.141
						c6.267,0,11.394,5.127,11.394,11.394v191.212C1834.293,2988.502,1829.166,2993.63,1822.899,2993.63z"/>
					<path style="fill:#7D97F4;" d="M1785.599,2976.853h-74.689c-21.183,0-38.514-17.332-38.514-38.514V2834.92
						c0-21.183,17.331-38.514,38.514-38.514h74.689c21.183,0,38.515,17.332,38.515,38.514v103.419
						C1824.113,2959.522,1806.782,2976.853,1785.599,2976.853z"/>
					
						<linearGradient id="SVGID_00000104689151772812949940000016724954265718088888_" gradientUnits="userSpaceOnUse" x1="1971.6516" y1="2407.8994" x2="1630.2468" y2="2935.217">
						<stop  offset="0" style="stop-color:#4F52FF"/>
						<stop  offset="1" style="stop-color:#4042E2"/>
					</linearGradient>
					
						<circle style="fill:url(#SVGID_00000104689151772812949940000016724954265718088888_);" cx="1744.853" cy="2758.202" r="64.913"/>
					<circle style="fill:#91B3FA;" cx="1746.81" cy="2758.202" r="49.474"/>
				</g>
				<g>
					
						<linearGradient id="SVGID_00000124874034548588965380000018186651496746262206_" gradientUnits="userSpaceOnUse" x1="2332.2866" y1="2178.6702" x2="2347.9312" y2="2525.457">
						<stop  offset="0" style="stop-color:#09005D"/>
						<stop  offset="1" style="stop-color:#1A0F91"/>
					</linearGradient>
					<path style="fill:url(#SVGID_00000124874034548588965380000018186651496746262206_);" d="M2376.151,2411.178h-75.008
						c-6.267,0-11.394-5.127-11.394-11.394v-160.256c0-6.267,5.127-11.394,11.394-11.394h75.008c6.267,0,11.394,5.127,11.394,11.394
						v160.256C2387.545,2406.051,2382.417,2411.178,2376.151,2411.178z"/>
					<path style="fill:#7D97F4;" d="M2341.765,3109.804h6.453c19.256,0,35.011-15.755,35.011-35.011v-224.907
						c0-19.256-15.755-35.011-35.011-35.011h-6.453c-19.256,0-35.011,15.755-35.011,35.011v224.907
						C2306.754,3094.049,2322.509,3109.804,2341.765,3109.804z"/>
					<path style="fill:#7D97F4;" d="M2377.849,2477.247h5.795c11.272,0,20.495-9.222,20.495-20.495v-210.829
						c0-11.272-9.223-20.495-20.495-20.495h-5.795c-11.272,0-20.495,9.223-20.495,20.495v210.829
						C2357.354,2468.024,2366.576,2477.247,2377.849,2477.247z"/>
					<path style="fill:#7D97F4;" d="M2303.856,2480.445h5.795c11.272,0,20.495-9.223,20.495-20.495v-210.828
						c0-11.272-9.223-20.495-20.495-20.495h-5.795c-11.272,0-20.495,9.223-20.495,20.495v210.828
						C2283.362,2471.223,2292.584,2480.445,2303.856,2480.445z"/>
					
						<linearGradient id="SVGID_00000065060204335198873350000016289058780067766449_" gradientUnits="userSpaceOnUse" x1="1909.1875" y1="2786.4546" x2="2554.4746" y2="3340.0623">
						<stop  offset="0" style="stop-color:#4F52FF"/>
						<stop  offset="1" style="stop-color:#4042E2"/>
					</linearGradient>
					<path style="fill:url(#SVGID_00000065060204335198873350000016289058780067766449_);" d="M2160.813,3199.136
						c-0.283-3.775-0.43-7.586-0.43-11.43v0c0-83.968,68.701-152.669,152.669-152.669h59.039
						c83.968,0,152.669,68.701,152.669,152.669v0c0,3.844-0.147,7.655-0.43,11.43H2160.813z"/>
					<path style="fill:#91B3FA;" d="M2190.552,3196.818c-0.236-3.147-0.359-6.325-0.359-9.53v0
						c0-70.01,57.281-127.291,127.291-127.291h49.224c70.01,0,127.291,57.281,127.291,127.291v0c0,3.205-0.123,6.383-0.359,9.53
						H2190.552z"/>
					
						<linearGradient id="SVGID_00000160901853473691975430000010232738273681715901_" gradientUnits="userSpaceOnUse" x1="2588.5786" y1="2026.725" x2="2137.9441" y2="2942.0752">
						<stop  offset="0" style="stop-color:#4F52FF"/>
						<stop  offset="1" style="stop-color:#4042E2"/>
					</linearGradient>
					<path style="fill:url(#SVGID_00000160901853473691975430000010232738273681715901_);" d="M2256.152,2749.913h164.99
						c6.267,0,11.394-5.127,11.394-11.394v-408.241c0-6.267-5.127-11.394-11.394-11.394h-164.99
						c-6.267,0-11.394,5.127-11.394,11.394v408.241C2244.758,2744.785,2249.885,2749.913,2256.152,2749.913z"/>
					<path style="fill:#7D97F4;" d="M2298.428,2724.132h88.287c21.183,0,38.514-17.332,38.514-38.514v-302.439
						c0-21.183-17.332-38.514-38.514-38.514h-88.287c-21.183,0-38.514,17.332-38.514,38.514v302.439
						C2259.914,2706.801,2277.245,2724.132,2298.428,2724.132z"/>
					
						<linearGradient id="SVGID_00000038382534960338599960000007586871280970028950_" gradientUnits="userSpaceOnUse" x1="2068.3655" y1="2224.125" x2="2564.373" y2="3267.7039" gradientTransform="matrix(-1 0 0 1 4728.1909 0)">
						<stop  offset="0" style="stop-color:#4F52FF"/>
						<stop  offset="1" style="stop-color:#4042E2"/>
					</linearGradient>
					<path style="fill:url(#SVGID_00000038382534960338599960000007586871280970028950_);" d="M2264.002,2998.613h157.14
						c6.267,0,11.394-5.127,11.394-11.394v-191.212c0-6.267-5.127-11.394-11.394-11.394h-157.14
						c-6.267,0-11.394,5.127-11.394,11.394v191.212C2252.608,2993.486,2257.735,2998.613,2264.002,2998.613z"/>
					<path style="fill:#7D97F4;" d="M2301.302,2981.837h74.689c21.183,0,38.514-17.332,38.514-38.514v-103.419
						c0-21.183-17.332-38.514-38.514-38.514h-74.689c-21.183,0-38.515,17.332-38.515,38.514v103.419
						C2262.788,2964.505,2280.119,2981.837,2301.302,2981.837z"/>
					
						<linearGradient id="SVGID_00000094605004297040222380000017619960705214247086_" gradientUnits="userSpaceOnUse" x1="2543.9758" y1="3107.9556" x2="2267.2905" y2="2503.5635" gradientTransform="matrix(-1 0 0 1 4728.1909 0)">
						<stop  offset="0" style="stop-color:#4F52FF"/>
						<stop  offset="1" style="stop-color:#4042E2"/>
					</linearGradient>
					
						<circle style="fill:url(#SVGID_00000094605004297040222380000017619960705214247086_);" cx="2342.048" cy="2763.185" r="64.913"/>
					<circle style="fill:#91B3FA;" cx="2340.091" cy="2763.185" r="49.474"/>
				</g>
				<g>
					
						<linearGradient id="SVGID_00000165233707260162848090000018386063200698275751_" gradientUnits="userSpaceOnUse" x1="2324.3831" y1="2673.6709" x2="1549.8479" y2="981.775">
						<stop  offset="0" style="stop-color:#09005D"/>
						<stop  offset="1" style="stop-color:#1A0F91"/>
					</linearGradient>
					<path style="fill:url(#SVGID_00000165233707260162848090000018386063200698275751_);" d="M2128.259,2218.581h-170.648
						c-6.267,0-11.394-5.127-11.394-11.394v-296.622c0-6.267,5.127-11.394,11.394-11.394h170.648
						c6.267,0,11.394,5.127,11.394,11.394v296.622C2139.653,2213.453,2134.526,2218.581,2128.259,2218.581z"/>
					
						<linearGradient id="SVGID_00000178908537280807669960000013883306141856673166_" gradientUnits="userSpaceOnUse" x1="2006.2823" y1="2057.5652" x2="2082.7583" y2="2057.5652">
						<stop  offset="0" style="stop-color:#4F52FF"/>
						<stop  offset="1" style="stop-color:#4042E2"/>
					</linearGradient>
					<path style="fill:url(#SVGID_00000178908537280807669960000013883306141856673166_);" d="M2072.401,2205.03h-55.761
						c-5.697,0-10.358-4.661-10.358-10.358v-274.215c0-5.697,4.661-10.358,10.358-10.358h55.761c5.697,0,10.357,4.661,10.357,10.358
						v274.215C2082.758,2200.369,2078.097,2205.03,2072.401,2205.03z"/>
				</g>
				<g>
					
						<linearGradient id="SVGID_00000127033314573804674690000004097541761001285774_" gradientUnits="userSpaceOnUse" x1="2352.6174" y1="2889.584" x2="1515.174" y2="1060.2714">
						<stop  offset="0" style="stop-color:#09005D"/>
						<stop  offset="1" style="stop-color:#1A0F91"/>
					</linearGradient>
					<path style="fill:url(#SVGID_00000127033314573804674690000004097541761001285774_);" d="M2431.521,2264.482h-766.422
						c-5.928,0-10.734-4.806-10.734-10.734v-57.787c0-5.928,4.806-10.734,10.734-10.734h766.422c5.928,0,10.734,4.806,10.734,10.734
						v57.787C2442.255,2259.676,2437.449,2264.482,2431.521,2264.482z"/>
					<path style="fill:#91B3FA;" d="M1768.333,2100.567v92.761c0,61.525,40.955,111.864,91.011,111.864h373.118
						c50.056,0,91.011-50.339,91.011-111.864v-92.761H1768.333z"/>
				</g>
			</g>
			<g>
				<path style="fill:#7D97F4;" d="M1920.366,608.133V561.79c0-43.88,43.981-79.579,98.04-79.579h86.389
					c54.059,0,98.04,35.698,98.04,79.579v46.344h25.296V561.79c0-55.202-55.328-100.111-123.336-100.111h-86.389
					c-68.007,0-123.336,44.91-123.336,100.111v46.344H1920.366z"/>
				<ellipse style="fill:#7D97F4;" cx="1903.941" cy="617.488" rx="70.742" ry="50.621"/>
				<ellipse style="fill:#7D97F4;" cx="2212.305" cy="617.488" rx="70.742" ry="50.621"/>
			</g>
			
				<linearGradient id="SVGID_00000021108725990515050740000008472166354593160088_" gradientUnits="userSpaceOnUse" x1="1752.6385" y1="277.8851" x2="2280.448" y2="1284.2209" gradientTransform="matrix(1 0.0065 -0.0065 1 -187.5067 -118.3524)">
				<stop  offset="0" style="stop-color:#09005D"/>
				<stop  offset="1" style="stop-color:#1A0F91"/>
			</linearGradient>
			<path style="fill:url(#SVGID_00000021108725990515050740000008472166354593160088_);" d="M2371.964,1181.392l-629.376-4.081
				c-28.016-0.181-50.79-23.253-50.608-51.269l0,0c0.181-28.016,23.253-50.79,51.269-50.609l629.375,4.081
				c28.016,0.182,50.79,23.253,50.609,51.269l0,0C2423.051,1158.8,2399.98,1181.574,2371.964,1181.392z"/>
			
				<linearGradient id="SVGID_00000166634242784939902290000007014683459610657204_" gradientUnits="userSpaceOnUse" x1="1329.8605" y1="469.7135" x2="2519.2822" y2="1156.562">
				<stop  offset="0" style="stop-color:#4F52FF"/>
				<stop  offset="1" style="stop-color:#4042E2"/>
			</linearGradient>
			<path style="fill:url(#SVGID_00000166634242784939902290000007014683459610657204_);" d="M2313.14,619.53l-497.655-3.227
				c-118.404-0.767-215.908,95.48-216.676,213.884l-1.278,197.117c-0.289,44.628,35.988,81.38,80.617,81.67l765.929,4.966
				c44.629,0.289,81.38-35.988,81.67-80.617l1.278-197.116C2527.792,717.802,2431.544,620.298,2313.14,619.53z"/>
			<path style="fill:#7D97F4;" d="M2287.989,649.168l-450.091-2.919c-107.088-0.694-195.272,86.355-195.967,193.442l-1.156,178.277
				c-0.262,40.363,32.548,73.602,72.912,73.864l692.725,4.491c40.364,0.262,73.602-32.549,73.864-72.912l1.156-178.276
				C2482.125,738.047,2395.077,649.863,2287.989,649.168z"/>
			
				<linearGradient id="SVGID_00000001644164351071018710000008217485830483150467_" gradientUnits="userSpaceOnUse" x1="2296.5122" y1="966.3207" x2="1532.5787" y2="2311.6555">
				<stop  offset="0" style="stop-color:#4F52FF"/>
				<stop  offset="1" style="stop-color:#4042E2"/>
			</linearGradient>
			<path style="fill:url(#SVGID_00000001644164351071018710000008217485830483150467_);" d="M2410.842,1140.891l-699.812-4.537
				c-62.811-0.407-114.535,50.65-114.943,113.462l-0.595,91.816c-1.655,255.259,204.341,696.383,459.601,698.038h0.001
				c255.259,1.656,466.959-436.761,468.614-692.02l0.595-91.817C2524.71,1193.023,2473.653,1141.299,2410.842,1140.891z"/>
			<path style="fill:#91B3FA;" d="M2387.874,1172.015l-639.246-4.145c-57.375-0.372-104.623,46.267-104.995,103.643l-0.543,83.87
				c-1.512,233.167,186.656,636.115,419.825,637.627h0.001c233.168,1.512,426.546-398.961,428.058-632.129l0.544-83.871
				C2491.888,1219.635,2445.249,1172.387,2387.874,1172.015z"/>
			<g>
				
					<linearGradient id="SVGID_00000037684224910327251390000016524696720887510184_" gradientUnits="userSpaceOnUse" x1="2585.2236" y1="-1082.8573" x2="2382.4089" y2="-339.2025">
					<stop  offset="0" style="stop-color:#09005D"/>
					<stop  offset="1" style="stop-color:#1A0F91"/>
				</linearGradient>
				<path style="fill:url(#SVGID_00000037684224910327251390000016524696720887510184_);" d="M2398.028,902.443
					c-0.223,34.444-26.562,63.184-60.876,66.19c-185.728,16.271-378.279,15.548-576.39-3.916
					c-34.376-3.378-60.528-32.468-60.304-67.009l0.235-36.211c0.223-34.336,26.427-62.989,60.617-66.163
					c192.75-17.891,385.483-19.993,578.189,2.821c33.724,3.993,58.992,32.878,58.772,66.836L2398.028,902.443z"/>
				<g>
					
						<linearGradient id="SVGID_00000106135617275615586200000007121783883180606628_" gradientUnits="userSpaceOnUse" x1="1997.1" y1="661.3338" x2="2175.1982" y2="1658.9827" gradientTransform="matrix(1 0.0065 -0.0065 1 -187.5067 -118.3524)">
						<stop  offset="0" style="stop-color:#4F52FF"/>
						<stop  offset="1" style="stop-color:#4042E2"/>
					</linearGradient>
					<path style="fill:url(#SVGID_00000106135617275615586200000007121783883180606628_);" d="M1903.489,881.123
						c-0.152,23.402-19.245,42.25-42.648,42.098c-23.401-0.152-42.249-19.246-42.097-42.647
						c0.152-23.402,19.246-42.25,42.647-42.098C1884.792,838.628,1903.641,857.722,1903.489,881.123z"/>
					
						<linearGradient id="SVGID_00000086655911335200345050000002026171169158738343_" gradientUnits="userSpaceOnUse" x1="2361.9607" y1="596.1937" x2="2540.0588" y2="1593.8433" gradientTransform="matrix(1 0.0065 -0.0065 1 -187.5067 -118.3524)">
						<stop  offset="0" style="stop-color:#4F52FF"/>
						<stop  offset="1" style="stop-color:#4042E2"/>
					</linearGradient>
					<path style="fill:url(#SVGID_00000086655911335200345050000002026171169158738343_);" d="M2279.977,883.565
						c-0.152,23.401-19.245,42.249-42.648,42.098c-23.401-0.152-42.249-19.245-42.097-42.647
						c0.152-23.402,19.246-42.25,42.647-42.098C2261.281,841.069,2280.129,860.163,2279.977,883.565z"/>
				</g>
				<g>
					<path style="fill:#7D97F4;" d="M1862.01,939.784c-0.082-1.404,0.967-2.574,2.327-2.656l0,0
						c1.404-0.082,2.574,0.968,2.656,2.372l0,0c0.082,1.358-0.967,2.529-2.371,2.611l0,0c-0.045,0-0.091-0.001-0.135-0.001l0,0
						C1863.173,942.102,1862.048,941.098,1862.01,939.784z M1849.277,941.106c-1.356-0.281-2.207-1.6-1.973-2.956l0,0
						c0.281-1.358,1.6-2.254,2.956-1.973l0,0c1.358,0.281,2.21,1.553,1.975,2.955l0,0c-0.235,1.175-1.283,2.028-2.458,2.021l0,0
						C1849.595,941.152,1849.459,941.107,1849.277,941.106z M1876.605,937.705c-0.401-1.316,0.29-2.715,1.649-3.114l0,0
						c1.317-0.445,2.716,0.29,3.114,1.606l0,0c0.444,1.316-0.289,2.716-1.606,3.158l0,0l0,0l0,0
						c-0.273,0.089-0.542,0.087-0.77,0.086l0,0C1877.907,939.434,1876.96,938.796,1876.605,937.705z M1834.683,936.258
						c-1.263-0.599-1.751-2.094-1.155-3.313l0,0c0.552-1.265,2.048-1.8,3.313-1.201l0,0c1.263,0.596,1.753,2.094,1.155,3.313l0,0
						c-0.413,0.948-1.323,1.44-2.273,1.433l0,0C1835.406,936.487,1835.044,936.441,1834.683,936.258z M1890.27,932.089
						c-0.762-1.183-0.389-2.72,0.792-3.481l0,0c1.137-0.717,2.676-0.345,3.438,0.792l0,0c0.718,1.181,0.389,2.72-0.792,3.482l0,0
						l0,0l0,0c-0.411,0.269-0.909,0.357-1.362,0.353l0,0C1891.531,933.23,1890.718,932.816,1890.27,932.089z M1821.743,927.931
						c-1.038-0.867-1.207-2.454-0.296-3.533l0,0c0.867-1.036,2.453-1.163,3.535-0.296l0,0c1.036,0.869,1.16,2.453,0.293,3.535l0,0
						c-0.501,0.585-1.228,0.896-1.953,0.892l0,0C1822.781,928.526,1822.191,928.343,1821.743,927.931z M1902.056,923.245
						c-0.991-0.957-1.025-2.542-0.068-3.578l0,0c0.957-0.989,2.541-1.025,3.531-0.067l0,0c0.991,0.957,1.025,2.542,0.068,3.533l0,0
						l0,0l0,0c-0.501,0.539-1.137,0.762-1.815,0.758l0,0C1903.137,923.887,1902.551,923.655,1902.056,923.245z M1811.265,916.68
						c-0.808-1.137-0.526-2.677,0.564-3.483l0,0c1.138-0.809,2.721-0.573,3.53,0.565l0,0c0.808,1.137,0.527,2.677-0.61,3.482l0,0
						c-0.411,0.316-0.954,0.494-1.454,0.49l0,0C1812.526,917.729,1811.758,917.362,1811.265,916.68z M1911.322,911.713
						c-1.218-0.687-1.615-2.183-0.975-3.402l0,0c0.689-1.218,2.23-1.615,3.402-0.973l0,0c1.218,0.686,1.661,2.228,0.975,3.402l0,0
						l0,0l0,0c-0.459,0.857-1.322,1.305-2.228,1.298l0,0C1912.135,912.036,1911.683,911.943,1911.322,911.713z M1803.926,903.183
						L1803.926,903.183L1803.926,903.183c-0.49-1.27,0.153-2.761,1.425-3.25l0,0c1.27-0.492,2.717,0.152,3.25,1.423l0,0
						c0.491,1.272-0.153,2.763-1.423,3.252l0,0c-0.319,0.088-0.635,0.177-0.954,0.175l0,0
						C1805.273,904.777,1804.326,904.183,1803.926,903.183z M1917.432,898.259c-1.358-0.325-2.162-1.69-1.791-3.045l0,0
						c0.369-1.311,1.734-2.118,3.045-1.791l0,0c1.355,0.372,2.162,1.734,1.791,3.045l0,0c0,0,0,0,0,0.044l0,0
						c-0.279,1.086-1.325,1.849-2.457,1.841l0,0C1917.838,898.352,1917.613,898.306,1917.432,898.259z M1800.174,888.261
						c-0.173-1.359,0.833-2.622,2.191-2.794l0,0c1.361-0.17,2.622,0.832,2.794,2.191l0,0c0.172,1.361-0.833,2.621-2.192,2.794l0,0
						c-0.09,0-0.226-0.001-0.316-0.002l0,0C1801.428,890.442,1800.346,889.531,1800.174,888.261z M1917.496,881.235
						c0-0.047,0-0.047,0-0.091l0,0c0-0.046,0.001-0.091,0.001-0.181l0,0c0.009-1.36,1.104-2.485,2.508-2.475l0,0
						c1.358,0.009,2.483,1.148,2.473,2.508l0,0c0,0.044,0,0.09-0.001,0.135l0,0c0,0.046,0,0.091-0.001,0.137l0,0
						c-0.009,1.357-1.102,2.483-2.505,2.473l0,0C1918.611,883.732,1917.487,882.592,1917.496,881.235z M1917.497,880.963
						L1917.497,880.963L1917.497,880.963v0.044l0,0C1917.497,880.963,1917.497,881.007,1917.497,880.963z M1802.428,875.688
						c-1.403-0.19-2.345-1.419-2.2-2.778l0,0c0.19-1.401,1.464-2.343,2.82-2.155l0,0c1.358,0.146,2.345,1.419,2.155,2.778l0,0
						c-0.143,1.266-1.235,2.21-2.504,2.202l0,0C1802.609,875.734,1802.519,875.689,1802.428,875.688z M1915.777,866.958
						c-0.354-1.313,0.471-2.712,1.786-3.022l0,0c1.36-0.354,2.715,0.471,3.069,1.787l0,0c0.307,1.359-0.471,2.714-1.833,3.068l0,0
						c-0.226,0.043-0.407,0.042-0.633,0.04l0,0C1917.079,868.824,1916.042,868.092,1915.777,866.958z M1805.511,861.264
						c-1.265-0.508-1.889-1.96-1.383-3.27l0,0c0.506-1.263,1.96-1.888,3.27-1.383l0,0c1.264,0.506,1.889,1.96,1.381,3.27l0,0
						c-0.413,0.948-1.368,1.577-2.365,1.57l0,0C1806.144,861.45,1805.827,861.357,1805.511,861.264z M1910.609,853.84
						L1910.609,853.84c-0.671-1.227-0.208-2.765,0.975-3.39l0,0c1.227-0.671,2.717-0.254,3.39,0.973l0,0l0,0l0,0
						c0.671,1.227,0.252,2.719-0.975,3.39l0,0c-0.408,0.223-0.815,0.311-1.222,0.308l0,0
						C1911.914,855.116,1911.057,854.657,1910.609,853.84z M1812.161,848.084c-1.126-0.867-1.386-2.408-0.565-3.535l0,0
						c0.823-1.08,2.41-1.342,3.49-0.521l0,0c1.127,0.823,1.389,2.364,0.566,3.49l0,0c-0.502,0.676-1.274,1.034-2.043,1.029l0,0
						C1813.111,848.543,1812.568,848.404,1812.161,848.084z M1902.308,842.376L1902.308,842.376
						c-0.944-1.003-0.89-2.588,0.114-3.533l0,0c1.048-0.944,2.63-0.887,3.577,0.114l0,0c0.944,1.003,0.887,2.588-0.114,3.532l0,0
						c-0.503,0.45-1.136,0.671-1.727,0.667l0,0C1903.48,843.153,1902.802,842.923,1902.308,842.376z M1821.833,836.917
						c-0.853-1.047-0.706-2.629,0.341-3.529l0,0c1.091-0.853,2.629-0.708,3.529,0.339l0,0c0.853,1.093,0.708,2.678-0.339,3.531l0,0
						c-0.502,0.403-1.045,0.581-1.636,0.577l0,0C1823.05,837.831,1822.329,837.51,1821.833,836.917z M1891.453,833.34
						L1891.453,833.34c-1.171-0.733-1.479-2.32-0.747-3.447l0,0c0.733-1.171,2.318-1.524,3.445-0.791l0,0l0,0l0,0
						c1.174,0.777,1.526,2.318,0.793,3.492l0,0c-0.502,0.72-1.321,1.123-2.136,1.118l0,0
						C1892.358,833.708,1891.905,833.615,1891.453,833.34z M1833.978,828.53c-0.58-1.273-0.026-2.764,1.2-3.344l0,0
						c1.271-0.58,2.762-0.026,3.341,1.244l0,0c0.582,1.226,0.029,2.717-1.244,3.297l0,0c-0.317,0.18-0.681,0.268-1.043,0.266l0,0
						C1835.282,829.986,1834.381,829.437,1833.978,828.53z M1878.725,827.279L1878.725,827.279
						c-1.311-0.459-2.027-1.868-1.611-3.179l0,0c0.417-1.311,1.826-2.027,3.181-1.564l0,0c0,0,0,0-0.047,0l0,0
						c1.357,0.416,2.073,1.824,1.611,3.135l0,0c-0.325,1.085-1.325,1.758-2.366,1.751l0,0
						C1879.221,827.419,1878.949,827.371,1878.725,827.279z M1847.823,823.411c-0.263-1.359,0.651-2.667,2.01-2.884l0,0
						c1.359-0.263,2.667,0.606,2.93,1.965l0,0c0.219,1.361-0.652,2.669-2.011,2.932l0,0c-0.182,0.043-0.316,0.042-0.498,0.041l0,0
						C1849.122,825.457,1848.04,824.634,1847.823,823.411z M1864.839,824.609L1864.839,824.609
						c-1.357-0.099-2.437-1.283-2.338-2.686l0,0c0.1-1.359,1.285-2.393,2.688-2.337l0,0l0,0l0,0
						c1.357,0.099,2.391,1.282,2.338,2.686l0,0c-0.099,1.313-1.238,2.346-2.507,2.339l0,0
						C1864.93,824.609,1864.886,824.609,1864.839,824.609z"/>
				</g>
				<g>
					<path style="fill:#7D97F4;" d="M2238.292,942.224c-0.081-1.404,0.968-2.574,2.327-2.656l0,0
						c1.405-0.082,2.574,0.967,2.656,2.372l0,0c0.082,1.358-0.967,2.53-2.372,2.611l0,0c-0.044,0-0.091,0-0.135-0.001l0,0
						C2239.456,944.542,2238.33,943.537,2238.292,942.224z M2225.559,943.545c-1.355-0.281-2.207-1.599-1.972-2.956l0,0
						c0.281-1.358,1.6-2.253,2.955-1.973l0,0c1.358,0.281,2.21,1.553,1.975,2.956l0,0c-0.236,1.174-1.282,2.028-2.458,2.02l0,0
						C2225.877,943.592,2225.741,943.547,2225.559,943.545z M2252.887,940.145c-0.401-1.316,0.29-2.716,1.65-3.113l0,0
						c1.316-0.445,2.715,0.289,3.113,1.605l0,0c0.445,1.317-0.289,2.716-1.606,3.158l0,0l0,0l0,0
						c-0.273,0.089-0.542,0.087-0.77,0.086l0,0C2254.189,941.874,2253.242,941.235,2252.887,940.145z M2210.965,938.697
						c-1.263-0.599-1.751-2.094-1.155-3.313l0,0c0.552-1.266,2.048-1.799,3.313-1.201l0,0c1.263,0.596,1.753,2.094,1.155,3.313l0,0
						c-0.413,0.948-1.323,1.44-2.273,1.434l0,0C2211.689,938.927,2211.327,938.881,2210.965,938.697z M2266.552,934.529
						c-0.761-1.183-0.389-2.72,0.792-3.481l0,0c1.137-0.718,2.675-0.345,3.437,0.792l0,0c0.718,1.181,0.389,2.72-0.792,3.482l0,0
						l0,0l0,0c-0.411,0.269-0.909,0.357-1.362,0.354l0,0C2267.813,935.67,2267,935.255,2266.552,934.529z M2198.025,930.371
						c-1.038-0.867-1.207-2.453-0.296-3.533l0,0c0.867-1.036,2.454-1.163,3.536-0.296l0,0c1.036,0.869,1.16,2.453,0.293,3.535l0,0
						c-0.501,0.585-1.229,0.896-1.954,0.892l0,0C2199.063,930.965,2198.474,930.782,2198.025,930.371z M2278.338,925.685
						c-0.991-0.957-1.025-2.543-0.067-3.578l0,0c0.957-0.989,2.54-1.025,3.531-0.068l0,0c0.991,0.957,1.025,2.543,0.068,3.533l0,0
						l0,0l0,0c-0.501,0.539-1.137,0.762-1.816,0.758l0,0C2279.42,926.326,2278.833,926.095,2278.338,925.685z M2187.547,919.12
						c-0.808-1.137-0.526-2.677,0.564-3.483l0,0c1.137-0.809,2.721-0.573,3.53,0.564l0,0c0.808,1.138,0.527,2.677-0.611,3.483l0,0
						c-0.411,0.316-0.954,0.494-1.454,0.49l0,0C2188.808,920.169,2188.04,919.801,2187.547,919.12z M2287.604,914.153
						c-1.218-0.686-1.615-2.184-0.975-3.402l0,0c0.688-1.218,2.23-1.615,3.402-0.973l0,0c1.218,0.687,1.661,2.228,0.974,3.403l0,0
						l0,0l0,0c-0.458,0.857-1.322,1.305-2.228,1.299l0,0C2288.418,914.476,2287.966,914.383,2287.604,914.153z M2180.208,905.623
						L2180.208,905.623L2180.208,905.623c-0.489-1.27,0.153-2.761,1.425-3.25l0,0c1.27-0.491,2.716,0.153,3.25,1.423l0,0
						c0.491,1.272-0.153,2.763-1.423,3.252l0,0c-0.319,0.088-0.636,0.177-0.954,0.175l0,0
						C2181.556,907.217,2180.609,906.622,2180.208,905.623z M2293.714,900.699c-1.358-0.325-2.163-1.69-1.791-3.045l0,0
						c0.369-1.312,1.734-2.118,3.045-1.791l0,0c1.355,0.371,2.162,1.734,1.791,3.045l0,0c0,0,0,0,0,0.045l0,0
						c-0.279,1.086-1.325,1.849-2.457,1.841l0,0C2294.12,900.792,2293.895,900.746,2293.714,900.699z M2176.456,890.701
						c-0.173-1.358,0.833-2.621,2.192-2.794l0,0c1.36-0.17,2.621,0.833,2.793,2.192l0,0c0.173,1.361-0.833,2.621-2.191,2.794l0,0
						c-0.091-0.001-0.225-0.002-0.316-0.002l0,0C2177.711,892.883,2176.629,891.971,2176.456,890.701z M2293.778,883.674
						c0-0.046,0-0.046,0.001-0.09l0,0c0-0.047,0-0.091,0.001-0.181l0,0c0.009-1.36,1.104-2.485,2.508-2.476l0,0
						c1.357,0.009,2.482,1.148,2.473,2.508l0,0c0,0.044,0,0.091,0,0.135l0,0c0,0.046-0.001,0.091-0.001,0.137l0,0
						c-0.009,1.357-1.102,2.482-2.506,2.473l0,0C2294.894,886.171,2293.769,885.032,2293.778,883.674z M2293.78,883.403
						L2293.78,883.403L2293.78,883.403l0,0.044l0,0C2293.78,883.403,2293.78,883.447,2293.78,883.403z M2178.711,878.128
						c-1.403-0.19-2.346-1.419-2.2-2.778l0,0c0.191-1.401,1.463-2.343,2.82-2.155l0,0c1.359,0.146,2.345,1.419,2.156,2.778l0,0
						c-0.143,1.266-1.235,2.21-2.504,2.201l0,0C2178.892,878.174,2178.802,878.129,2178.711,878.128z M2292.06,869.398
						c-0.354-1.313,0.47-2.712,1.786-3.022l0,0c1.36-0.354,2.715,0.471,3.069,1.787l0,0c0.308,1.359-0.471,2.714-1.833,3.068l0,0
						c-0.226,0.043-0.407,0.042-0.633,0.04l0,0C2293.361,871.264,2292.324,870.532,2292.06,869.398z M2181.794,863.704
						c-1.266-0.508-1.889-1.96-1.383-3.27l0,0c0.505-1.264,1.96-1.889,3.27-1.383l0,0c1.264,0.506,1.889,1.96,1.381,3.27l0,0
						c-0.413,0.948-1.367,1.576-2.365,1.57l0,0C2182.427,863.89,2182.109,863.797,2181.794,863.704z M2286.891,856.28
						L2286.891,856.28c-0.671-1.227-0.208-2.765,0.975-3.39l0,0c1.227-0.671,2.717-0.255,3.39,0.973l0,0l0,0l0,0
						c0.67,1.227,0.252,2.719-0.975,3.39l0,0c-0.408,0.223-0.816,0.311-1.223,0.308l0,0
						C2288.196,857.555,2287.34,857.097,2286.891,856.28z M2188.444,850.523c-1.127-0.867-1.386-2.408-0.565-3.534l0,0
						c0.823-1.08,2.41-1.342,3.49-0.522l0,0c1.127,0.823,1.388,2.364,0.565,3.49l0,0c-0.501,0.676-1.274,1.033-2.043,1.028l0,0
						C2189.393,850.983,2188.851,850.845,2188.444,850.523z M2278.591,844.816L2278.591,844.816
						c-0.944-1.003-0.89-2.588,0.114-3.533l0,0c1.047-0.944,2.63-0.887,3.577,0.114l0,0c0.944,1.003,0.887,2.588-0.114,3.532l0,0
						c-0.503,0.45-1.136,0.672-1.726,0.667l0,0C2279.762,845.593,2279.085,845.363,2278.591,844.816z M2198.115,839.357
						c-0.853-1.047-0.705-2.629,0.342-3.529l0,0c1.091-0.852,2.629-0.708,3.529,0.339l0,0c0.854,1.093,0.708,2.678-0.339,3.531l0,0
						c-0.502,0.404-1.045,0.581-1.635,0.578l0,0C2199.333,840.271,2198.612,839.95,2198.115,839.357z M2267.736,835.779
						L2267.736,835.779c-1.172-0.733-1.48-2.32-0.747-3.447l0,0c0.732-1.172,2.318-1.524,3.445-0.791l0,0l0,0l0,0
						c1.173,0.776,1.526,2.318,0.793,3.492l0,0c-0.502,0.72-1.32,1.123-2.136,1.118l0,0
						C2268.64,836.148,2268.188,836.055,2267.736,835.779z M2210.26,830.97c-0.58-1.273-0.026-2.764,1.2-3.344l0,0
						c1.271-0.58,2.762-0.026,3.342,1.244l0,0c0.582,1.227,0.029,2.717-1.244,3.297l0,0c-0.318,0.179-0.68,0.268-1.043,0.265l0,0
						C2211.564,832.426,2210.663,831.877,2210.26,830.97z M2255.007,829.718L2255.007,829.718c-1.311-0.459-2.027-1.868-1.611-3.178
						l0,0c0.417-1.311,1.826-2.027,3.18-1.565l0,0c0,0,0,0-0.046,0l0,0c1.357,0.416,2.073,1.824,1.611,3.135l0,0
						c-0.325,1.085-1.324,1.758-2.366,1.751l0,0C2255.504,829.859,2255.232,829.811,2255.007,829.718z M2224.105,825.85
						c-0.263-1.359,0.652-2.667,2.01-2.883l0,0c1.359-0.263,2.667,0.606,2.93,1.964l0,0c0.219,1.361-0.652,2.669-2.011,2.932l0,0
						c-0.181,0.043-0.317,0.042-0.498,0.041l0,0C2225.405,827.897,2224.323,827.074,2224.105,825.85z M2241.122,827.049
						L2241.122,827.049c-1.357-0.1-2.437-1.283-2.337-2.686l0,0c0.099-1.359,1.284-2.392,2.688-2.337l0,0l0,0l0,0
						c1.356,0.099,2.391,1.282,2.337,2.686l0,0c-0.099,1.312-1.238,2.347-2.507,2.339l0,0
						C2241.212,827.049,2241.168,827.049,2241.122,827.049z"/>
				</g>
			</g>
			<path style="fill:#BDD0FB;" d="M1800.696,736.288c-12.759-0.083-23.565-9.905-24.63-22.864
				c-1.127-13.709,9.073-25.734,22.779-26.862c181.116-14.893,346.553-14.342,505.754,1.686
				c13.685,1.375,23.662,13.587,22.284,27.271c-1.378,13.686-13.543,23.671-27.271,22.284
				c-156.152-15.715-318.617-16.24-496.684-1.6C1802.177,736.265,1801.434,736.292,1800.696,736.288z"/>
			<g>
				<path style="fill:#BDD0FB;" d="M2052.254,993.717c-100.635-0.653-202.04-6.296-303.554-16.93
					c-37.218-3.898-65.09-36.996-64.83-76.987l0.261-40.353c0.257-39.681,28.301-72.385,65.233-76.072
					c217.822-21.741,414.836-20.802,602.308,2.875c36.276,4.582,63.443,37.593,63.189,76.79l-0.271,41.735
					c-0.259,39.89-28.424,72.61-65.516,76.103C2251.386,990.086,2152.201,994.365,2052.254,993.717z M2066.359,772.49
					c-101.134-0.656-206.154,4.529-316.531,15.549c-34.54,3.446-60.769,34.159-61.01,71.439l-0.261,40.353
					c-0.244,37.569,25.821,68.65,60.634,72.298c202.025,21.158,403.708,22.532,599.445,4.086
					c34.684-3.269,61.024-33.994,61.267-71.47l0.271-41.735c0.239-36.826-25.163-67.828-59.089-72.111
					C2258.939,779.259,2164.478,773.126,2066.359,772.49z"/>
			</g>
			<g>
				<path style="fill:#BDD0FB;" d="M2219.856,1420.394l-326.008-2.114c-31.208-0.203-56.434-25.757-56.231-56.965l0.602-92.822
					c0.202-31.209,25.757-56.434,56.965-56.232l326.007,2.114c31.209,0.203,56.434,25.757,56.231,56.965l-0.602,92.822
					C2276.619,1395.371,2251.064,1420.596,2219.856,1420.394z M1895.155,1216.789c-28.713-0.186-52.222,23.021-52.408,51.733
					l-0.602,92.821c-0.186,28.713,23.02,52.223,51.733,52.409l326.007,2.114c28.713,0.186,52.222-23.02,52.409-51.733l0.602-92.821
					c0.186-28.713-23.021-52.222-51.733-52.408L1895.155,1216.789z"/>
			</g>
			<g>
				
					<linearGradient id="SVGID_00000093178201336825440660000014052851910520532661_" gradientUnits="userSpaceOnUse" x1="1779.6748" y1="1028.2766" x2="2585.6426" y2="1819.5277" gradientTransform="matrix(1 0.0065 -0.0065 1 -187.5067 -118.3524)">
					<stop  offset="0" style="stop-color:#4F52FF"/>
					<stop  offset="1" style="stop-color:#4042E2"/>
				</linearGradient>
				<path style="fill:url(#SVGID_00000093178201336825440660000014052851910520532661_);" d="M1925.741,1269.06
					c-0.588-0.004-1.176-0.054-1.763-0.193c-0.587-0.094-1.13-0.279-1.673-0.508c-0.542-0.231-1.082-0.507-1.579-0.872
					c-0.496-0.319-0.947-0.685-1.35-1.141c-1.665-1.684-2.645-4.046-2.629-6.4c0.016-2.401,1.025-4.703,2.712-6.412
					c3.371-3.33,9.44-3.291,12.814,0.083c0.404,0.453,0.763,0.909,1.123,1.409c0.313,0.502,0.582,1.001,0.804,1.547
					c0.224,0.589,0.402,1.135,0.488,1.723c0.131,0.589,0.171,1.179,0.168,1.767c-0.004,0.589-0.052,1.176-0.191,1.763
					c-0.094,0.59-0.279,1.13-0.51,1.673c-0.229,0.587-0.505,1.085-0.824,1.58c-0.365,0.495-0.731,0.946-1.141,1.35
					c-0.412,0.45-0.912,0.81-1.411,1.123c-0.502,0.359-1.001,0.628-1.547,0.852c-0.543,0.222-1.134,0.399-1.723,0.486
					C1926.964,1269.022,1926.331,1269.064,1925.741,1269.06z"/>
				
					<linearGradient id="SVGID_00000036964545716611302640000007596128648376952756_" gradientUnits="userSpaceOnUse" x1="1681.3693" y1="906.5602" x2="2532.2246" y2="1741.8794" gradientTransform="matrix(0.9981 -0.0609 0.0609 0.9981 -134.7728 62.7095)">
					<stop  offset="0" style="stop-color:#4F52FF"/>
					<stop  offset="1" style="stop-color:#4042E2"/>
				</linearGradient>
				<path style="fill:url(#SVGID_00000036964545716611302640000007596128648376952756_);" d="M2130.597,1261.332
					c0.032-4.981,4.087-9.029,9.068-8.997l0,0c5.025,0.032,9.076,4.134,9.043,9.114l0,0c-0.032,4.981-4.135,9.03-9.161,8.997l0,0
					C2134.567,1270.414,2130.565,1266.313,2130.597,1261.332z M2087.808,1261.055c0.032-4.981,4.134-9.029,9.115-8.997l0,0
					c5.025,0.033,9.029,4.133,8.997,9.115l0,0c-0.032,4.981-4.089,9.03-9.114,8.997l0,0
					C2091.824,1270.137,2087.776,1266.036,2087.808,1261.055z M2045.065,1260.778c0.032-4.981,4.089-9.03,9.114-8.997l0,0
					c4.981,0.032,9.029,4.133,8.997,9.115l0,0c-0.032,4.981-4.133,9.029-9.115,8.997l0,0
					C2049.037,1269.859,2045.033,1265.759,2045.065,1260.778z M2002.276,1260.5c0.032-4.981,4.134-9.029,9.114-8.997l0,0
					c5.026,0.033,9.029,4.133,8.997,9.114l0,0c-0.032,4.981-4.089,9.03-9.115,8.997l0,0
					C2006.292,1269.582,2002.244,1265.481,2002.276,1260.5z M1959.533,1260.223c0.032-4.981,4.089-9.03,9.115-8.997l0,0
					c4.981,0.032,9.029,4.133,8.997,9.114l0,0c-0.032,4.981-4.133,9.029-9.115,8.997l0,0
					C1963.505,1269.305,1959.501,1265.204,1959.533,1260.223z"/>
				
					<linearGradient id="SVGID_00000129168757114353565590000000888119925010168498_" gradientUnits="userSpaceOnUse" x1="1905.6001" y1="900.0069" x2="2711.5652" y2="1691.2554" gradientTransform="matrix(1 0.0065 -0.0065 1 -187.5067 -118.3524)">
					<stop  offset="0" style="stop-color:#4F52FF"/>
					<stop  offset="1" style="stop-color:#4042E2"/>
				</linearGradient>
				<path style="fill:url(#SVGID_00000129168757114353565590000000888119925010168498_);" d="M2182.337,1270.724
					c-2.401-0.015-4.703-0.981-6.367-2.714c-0.451-0.41-0.81-0.865-1.124-1.365c-0.313-0.5-0.628-1.001-0.85-1.544
					c-0.224-0.592-0.4-1.135-0.486-1.725c-0.133-0.589-0.173-1.178-0.17-1.766c0.015-2.401,0.982-4.703,2.712-6.368
					c0.41-0.45,0.866-0.81,1.365-1.123c0.502-0.36,1.001-0.628,1.591-0.85c0.545-0.222,1.09-0.4,1.679-0.487
					c2.947-0.571,6.064,0.402,8.18,2.543c1.665,1.687,2.6,4,2.585,6.402c-0.004,0.588-0.054,1.176-0.193,1.763
					c-0.094,0.59-0.279,1.13-0.511,1.719c-0.229,0.54-0.504,1.038-0.87,1.533c-0.32,0.495-0.685,0.946-1.094,1.35
					c-0.456,0.45-0.912,0.81-1.411,1.123c-0.5,0.359-1.001,0.628-1.544,0.852c-0.592,0.222-1.135,0.399-1.726,0.487
					C2183.514,1270.685,2182.926,1270.728,2182.337,1270.724z"/>
			</g>
			<g>
				<g>
					<g>
						<g>
							
								<linearGradient id="SVGID_00000034770662985798049990000018275088170104996772_" gradientUnits="userSpaceOnUse" x1="-789.3585" y1="-588.1216" x2="-774.4842" y2="-692.242" gradientTransform="matrix(-0.5333 0.846 0.846 0.5333 1733.4904 2485.2305)">
								<stop  offset="0" style="stop-color:#09005D"/>
								<stop  offset="1" style="stop-color:#1A0F91"/>
							</linearGradient>
							<path style="fill:url(#SVGID_00000034770662985798049990000018275088170104996772_);" d="M1663.207,1273.861l32.684,20.603
								c7.133,4.497,9.14,14,4.433,20.997l-219.69,328.65c-4.513,6.71-13.542,8.616-20.383,4.304l-17.054-10.75L1663.207,1273.861z"
								/>
							
								<linearGradient id="SVGID_00000054972968507576658730000000677376429887585468_" gradientUnits="userSpaceOnUse" x1="-987.2132" y1="-753.0438" x2="-471.3818" y2="-753.0438" gradientTransform="matrix(-0.5333 0.846 0.846 0.5333 1733.4904 2485.2305)">
								<stop  offset="0" style="stop-color:#09005D"/>
								<stop  offset="1" style="stop-color:#1A0F91"/>
							</linearGradient>
							<path style="fill:url(#SVGID_00000054972968507576658730000000677376429887585468_);" d="M1337.079,1678.083l34.454,21.719
								c13.897,8.76,32.249,4.797,41.292-8.917l265.048-407.779l-96.085-60.57c-7.792-4.912-18.101-2.443-22.823,5.466
								l-231.65,408.98C1318.843,1651.056,1323.182,1669.323,1337.079,1678.083z"/>
							
								<linearGradient id="SVGID_00000002368342324493310090000002012879072621037489_" gradientUnits="userSpaceOnUse" x1="-720.3521" y1="-846.3088" x2="-748.545" y2="-681.1794" gradientTransform="matrix(-0.5333 0.846 0.846 0.5333 1733.4904 2485.2305)">
								<stop  offset="0" style="stop-color:#4F52FF"/>
								<stop  offset="1" style="stop-color:#4042E2"/>
							</linearGradient>
							<path style="fill:url(#SVGID_00000002368342324493310090000002012879072621037489_);" d="M1414.204,1535.904l103.505-178.987
								c7.661-12.153,23.724-15.796,35.878-8.134c12.154,7.661,15.795,23.724,8.134,35.878l-103.505,178.987
								c-7.661,12.154-23.724,15.796-35.878,8.134C1410.183,1564.121,1406.542,1548.058,1414.204,1535.904z"/>
							<polygon style="fill:#91B3FA;" points="1548.508,1345.582 1558.665,1351.984 1427.416,1574.983 1417.259,1568.581 							"/>
						</g>
						<g>
							
								<linearGradient id="SVGID_00000048468931422547579500000009747193991127534720_" gradientUnits="userSpaceOnUse" x1="1803.9788" y1="1008.1162" x2="1452.4336" y2="1538.8142">
								<stop  offset="0" style="stop-color:#4F52FF"/>
								<stop  offset="1" style="stop-color:#4042E2"/>
							</linearGradient>
							<path style="fill:url(#SVGID_00000048468931422547579500000009747193991127534720_);" d="M1545.312,1205.814
								c31.364-49.755,97.124-64.663,146.878-33.299c49.755,31.364,64.663,97.124,33.299,146.879
								c-31.364,49.754-97.124,64.663-146.879,33.299C1528.856,1321.328,1513.948,1255.569,1545.312,1205.814z"/>
							<path style="fill:#91B3FA;" d="M1566.585,1219.224c23.958-38.006,74.19-49.394,112.196-25.437
								c38.006,23.958,49.394,74.19,25.436,112.196c-23.958,38.006-74.189,49.394-112.196,25.436
								C1554.015,1307.462,1542.627,1257.23,1566.585,1219.224z"/>
						</g>
					</g>
					<g>
						<g>
							
								<linearGradient id="SVGID_00000145047084343140393010000007905846366945515172_" gradientUnits="userSpaceOnUse" x1="1863.5685" y1="1018.6318" x2="2141.4521" y2="1018.6318" gradientTransform="matrix(0.9332 0.3595 0.3595 -0.9332 -757.9234 1968.9423)">
								<stop  offset="0" style="stop-color:#09005D"/>
								<stop  offset="1" style="stop-color:#1A0F91"/>
							</linearGradient>
							<path style="fill:url(#SVGID_00000145047084343140393010000007905846366945515172_);" d="M1600.511,1804.216l11.491-29.834
								c4.635-12.033,1.156-24.655-7.829-28.399l-238.478-105.279l-32.046,83.2c-2.599,6.748-0.494,13.786,4.659,15.583
								l237.345,80.538C1584.829,1823.275,1595.876,1816.249,1600.511,1804.216z"/>
						</g>
						<g>
							
								<linearGradient id="SVGID_00000081627219846091160860000012345025793109470358_" gradientUnits="userSpaceOnUse" x1="2069.7578" y1="840.0114" x2="1796.813" y2="1099.1559" gradientTransform="matrix(0.9332 0.3595 0.3595 -0.9332 -757.9234 1968.9423)">
								<stop  offset="0" style="stop-color:#4F52FF"/>
								<stop  offset="1" style="stop-color:#4042E2"/>
							</linearGradient>
							<path style="fill:url(#SVGID_00000081627219846091160860000012345025793109470358_);" d="M1334.161,1772.806
								c-43.082-16.594-64.555-64.971-47.961-108.054c16.594-43.083,64.971-64.555,108.054-47.961
								c43.082,16.594,64.555,64.972,47.961,108.054C1425.62,1767.928,1377.243,1789.4,1334.161,1772.806z"/>
							<path style="fill:#91B3FA;" d="M1341.255,1754.386c-32.909-12.676-49.311-49.63-36.636-82.539
								c12.676-32.909,49.63-49.312,82.539-36.636c32.91,12.675,49.312,49.629,36.636,82.538
								C1411.119,1750.659,1374.165,1767.062,1341.255,1754.386z"/>
						</g>
						<g>
							
								<linearGradient id="SVGID_00000119803210588945178230000005201650281950751401_" gradientUnits="userSpaceOnUse" x1="2004.0389" y1="1142.9939" x2="2258.7092" y2="920.3804" gradientTransform="matrix(0.9332 0.3595 0.3595 -0.9332 -757.9234 1968.9423)">
								<stop  offset="0" style="stop-color:#4F52FF"/>
								<stop  offset="1" style="stop-color:#4042E2"/>
							</linearGradient>
							<path style="fill:url(#SVGID_00000119803210588945178230000005201650281950751401_);" d="M1607.149,1847.128l-31.864-12.414
								c-1.068-0.416-1.596-1.619-1.18-2.686l38.324-98.368c0.416-1.068,1.619-1.596,2.686-1.18l31.864,12.414
								c1.068,0.416,1.596,1.619,1.18,2.686l-38.324,98.368C1609.419,1847.015,1608.216,1847.543,1607.149,1847.128z"/>
							
								<linearGradient id="SVGID_00000145739757398093695450000010182126674267909032_" gradientUnits="userSpaceOnUse" x1="2197.8618" y1="1017.6232" x2="2259.541" y2="1017.6232" gradientTransform="matrix(0.9332 0.3595 0.3595 -0.9332 -757.9234 1968.9423)">
								<stop  offset="0" style="stop-color:#09005D"/>
								<stop  offset="1" style="stop-color:#1A0F91"/>
							</linearGradient>
							<path style="fill:url(#SVGID_00000145739757398093695450000010182126674267909032_);" d="M1678.21,1759.45
								c18.093,4.194,33.545,17.604,39.47,36.617c8.888,28.517-7.026,58.84-35.544,67.727c-14.432,4.498-29.327,2.643-41.672-3.983
								L1678.21,1759.45z"/>
							<path style="fill:#7D97F4;" d="M1644.422,1746.692l6.211-15.942c1.121-2.876,4.523-4.235,7.601-3.036l29.558,11.517
								c3.078,1.199,4.664,4.502,3.544,7.377l-49.522,127.108c-1.12,2.876-4.523,4.235-7.6,3.036l-29.559-11.516
								c-3.078-1.199-4.664-4.502-3.544-7.378l5.691-14.607L1644.422,1746.692z"/>
						</g>
					</g>
				</g>
				<path style="fill:#BDD0FB;" d="M1809.979,1708.889l-97.56,4.889c-7.25,0.364-12.778,6.628-12.236,13.867l11.298,150.819
					c0.528,7.042,6.612,12.355,13.661,11.93l97.011-5.855c6.93-0.418,12.291-6.239,12.137-13.18l-0.121-5.486
					c-0.149-6.754-5.477-12.252-12.223-12.614l-60.194-3.233c-6.68-0.359-11.981-5.758-12.218-12.444l-2.982-84.429
					c-0.241-6.824,4.87-12.657,11.667-13.314l53.65-5.189c6.265-0.606,11.181-5.639,11.64-11.917l0,0
					C1824.076,1714.991,1817.733,1708.501,1809.979,1708.889z"/>
			</g>
			<g>
				<g>
					<g>
						<g>
							<path style="fill:#7D97F4;" d="M2482.976,1221.28l24.693-29.715c5.39-6.486,15.073-7.234,21.396-1.655l297.161,260.711
								c6.063,5.35,6.774,14.551,1.607,20.77l-12.884,15.505L2482.976,1221.28z"/>
							
								<linearGradient id="SVGID_00000133530071532560746550000015397737667233168316_" gradientUnits="userSpaceOnUse" x1="2364.4055" y1="1968.0764" x2="2880.2495" y2="1968.0764" gradientTransform="matrix(0.7691 0.6392 0.6392 -0.7691 -623.941 1260.2452)">
								<stop  offset="0" style="stop-color:#09005D"/>
								<stop  offset="1" style="stop-color:#1A0F91"/>
							</linearGradient>
							<path style="fill:url(#SVGID_00000133530071532560746550000015397737667233168316_);" d="M2841.168,1597.382l26.031-31.324
								c10.499-12.635,8.966-31.347-3.451-42.103l-369.692-316.01l-72.594,87.357c-5.887,7.084-4.786,17.627,2.44,23.341
								l375.242,283.054C2811.992,1611.934,2830.668,1610.017,2841.168,1597.382z"/>
							
								<linearGradient id="SVGID_00000004541300549676454930000005933897871778366911_" gradientUnits="userSpaceOnUse" x1="2631.2725" y1="1874.8354" x2="2603.083" y2="2039.9449" gradientTransform="matrix(0.7691 0.6392 0.6392 -0.7691 -623.941 1260.2452)">
								<stop  offset="0" style="stop-color:#4F52FF"/>
								<stop  offset="1" style="stop-color:#4042E2"/>
							</linearGradient>
							<path style="fill:url(#SVGID_00000004541300549676454930000005933897871778366911_);" d="M2710.273,1502.358
								l-163.945-125.983c-11.05-9.182-12.564-25.583-3.381-36.633c9.182-11.05,25.583-12.563,36.633-3.381l163.945,125.984
								c11.05,9.182,12.563,25.583,3.381,36.632C2737.724,1510.027,2721.323,1511.541,2710.273,1502.358z"/>
							<polygon style="fill:#91B3FA;" points="2539.111,1344.359 2546.784,1335.125 2750.743,1494.36 2743.069,1503.594 							"/>
						</g>
						<g>
							
								<linearGradient id="SVGID_00000129883912976851806000000008984010718912887186_" gradientUnits="userSpaceOnUse" x1="1994.8417" y1="975.8473" x2="2866.9443" y2="1476.1241">
								<stop  offset="0" style="stop-color:#4F52FF"/>
								<stop  offset="1" style="stop-color:#4042E2"/>
							</linearGradient>
							
								<circle style="fill:url(#SVGID_00000129883912976851806000000008984010718912887186_);" cx="2468.185" cy="1247.378" r="106.495"/>
							<path style="fill:#91B3FA;" d="M2416.194,1309.943c-34.553-28.714-39.287-80.003-10.573-114.556
								c28.714-34.554,80.003-39.287,114.556-10.573c34.554,28.714,39.287,80.002,10.574,114.556
								C2502.036,1333.923,2450.747,1338.657,2416.194,1309.943z"/>
						</g>
					</g>
					<g>
						<g>
							
								<linearGradient id="SVGID_00000109022253921742767090000005605630087046140340_" gradientUnits="userSpaceOnUse" x1="3884.2568" y1="-2796.8184" x2="4162.1396" y2="-2796.8184" gradientTransform="matrix(0.4782 -0.8783 -0.8783 -0.4782 -1461.2489 3662.6296)">
								<stop  offset="0" style="stop-color:#09005D"/>
								<stop  offset="1" style="stop-color:#1A0F91"/>
							</linearGradient>
							<path style="fill:url(#SVGID_00000109022253921742767090000005605630087046140340_);" d="M3000.609,1352.669l-28.079-15.287
								c-11.326-6.166-24.293-4.364-29.178,4.055l-135.508,222.695l78.305,42.633c6.351,3.457,13.604,2.289,16.058-2.586
								l110.83-224.801C3017.458,1370.705,3011.934,1358.835,3000.609,1352.669z"/>
						</g>
						<g>
							
								<linearGradient id="SVGID_00000077286714652381966040000003692430890436648381_" gradientUnits="userSpaceOnUse" x1="4026.7898" y1="-2915.0032" x2="3753.8428" y2="-2655.8564" gradientTransform="matrix(0.4782 -0.8783 -0.8783 -0.4782 -1461.2489 3662.6296)">
								<stop  offset="0" style="stop-color:#4F52FF"/>
								<stop  offset="1" style="stop-color:#4042E2"/>
							</linearGradient>
							<path style="fill:url(#SVGID_00000077286714652381966040000003692430890436648381_);" d="M2934.7,1612.64
								c-22.076,40.548-72.842,55.522-113.39,33.446c-40.548-22.076-55.522-72.842-33.446-113.39
								c22.076-40.547,72.842-55.522,113.39-33.446C2941.802,1521.326,2956.776,1572.093,2934.7,1612.64z"/>
							<path style="fill:#91B3FA;" d="M2917.364,1603.202c-16.863,30.973-55.642,42.411-86.615,25.548
								c-30.973-16.863-42.411-55.642-25.548-86.615c16.863-30.974,55.642-42.411,86.615-25.548
								C2922.788,1533.449,2934.226,1572.229,2917.364,1603.202z"/>
						</g>
						<g>
							
								<linearGradient id="SVGID_00000129164406873165647300000010462409940003669685_" gradientUnits="userSpaceOnUse" x1="4024.7297" y1="-2672.4692" x2="4279.396" y2="-2895.0793" gradientTransform="matrix(0.4782 -0.8783 -0.8783 -0.4782 -1461.2489 3662.6296)">
								<stop  offset="0" style="stop-color:#4F52FF"/>
								<stop  offset="1" style="stop-color:#4042E2"/>
							</linearGradient>
							<path style="fill:url(#SVGID_00000129164406873165647300000010462409940003669685_);" d="M3044.02,1351.689l-16.468,29.971
								c-0.552,1.004-1.813,1.371-2.817,0.819l-92.523-50.837c-1.004-0.552-1.371-1.813-0.819-2.817l16.468-29.971
								c0.552-1.004,1.813-1.371,2.817-0.819l92.523,50.836C3044.205,1349.424,3044.571,1350.685,3044.02,1351.689z"/>
							
								<linearGradient id="SVGID_00000170961664890546182110000005403528857149346712_" gradientUnits="userSpaceOnUse" x1="4218.5532" y1="-2797.8406" x2="4280.2305" y2="-2797.8406" gradientTransform="matrix(0.4782 -0.8783 -0.8783 -0.4782 -1461.2489 3662.6296)">
								<stop  offset="0" style="stop-color:#09005D"/>
								<stop  offset="1" style="stop-color:#1A0F91"/>
							</linearGradient>
							<path style="fill:url(#SVGID_00000170961664890546182110000005403528857149346712_);" d="M2966.368,1269.791
								c6.52-17.391,21.832-30.96,41.456-34.352c29.433-5.089,57.419,14.647,62.508,44.081c2.575,14.896-1.208,29.421-9.388,40.796
								L2966.368,1269.791z"/>
							<path style="fill:#7D97F4;" d="M2949.309,1301.625l-14.995-8.238c-2.705-1.486-3.608-5.037-2.018-7.932l15.277-27.802
								c1.59-2.895,5.073-4.036,7.777-2.551l119.556,65.69c2.705,1.486,3.609,5.037,2.018,7.932l-15.276,27.803
								c-1.591,2.895-5.072,4.037-7.777,2.55l-13.739-7.549L2949.309,1301.625z"/>
						</g>
					</g>
				</g>
				<path style="fill:#91B3FA;" d="M2933.441,1132.55l-7.888,97.363c-0.586,7.236,4.904,13.534,12.151,13.941l151.003,8.486
					c7.051,0.396,13.113-4.943,13.611-11.986l6.859-96.945c0.49-6.925-4.582-13-11.484-13.754l-5.455-0.596
					c-6.716-0.733-12.862,3.831-14.102,10.471l-11.063,59.257c-1.228,6.576-7.273,11.127-13.932,10.489l-84.096-8.065
					c-6.797-0.652-11.913-6.481-11.677-13.305l1.859-53.868c0.217-6.29-4.131-11.822-10.295-13.096l0,0
					C2941.33,1119.37,2934.068,1124.811,2933.441,1132.55z"/>
			</g>
		</g>
		<g>
			<g>
				<g>
					
						<linearGradient id="SVGID_00000052812914556900848140000012383659781910689176_" gradientUnits="userSpaceOnUse" x1="827.0981" y1="1098.1543" x2="828.7885" y2="1098.1543">
						<stop  offset="0" style="stop-color:#FEBBBA"/>
						<stop  offset="1" style="stop-color:#FF928E"/>
					</linearGradient>
					<path style="fill:url(#SVGID_00000052812914556900848140000012383659781910689176_);" d="M1224.204,1310.235
						c-3.482,0-6.747-1.888-8.447-5.008l-16.924-31.003c-16.641-1.38-32.954-5.12-48.594-11.144l-28.749,20.565
						c-3.337,2.383-7.823,2.387-11.161,0.016l-37.982-26.992c-3.341-2.374-4.81-6.609-3.658-10.54l9.966-33.918
						c-10.831-12.782-19.73-26.956-26.51-42.22l-34.846-5.787c-4.037-0.664-7.216-3.826-7.903-7.87l-7.774-45.95
						c-0.687-4.037,1.271-8.071,4.866-10.038l31.013-16.928c1.38-16.647,5.12-32.961,11.141-48.594l-20.565-28.749
						c-2.38-3.347-2.383-7.83-0.013-11.161l26.992-37.982c2.383-3.347,6.638-4.813,10.553-3.648l33.905,9.956
						c12.781-10.831,26.956-19.73,42.22-26.51l5.787-34.845c0.663-4.037,3.826-7.216,7.87-7.903l45.953-7.774
						c4.024-0.683,8.074,1.274,10.035,4.866l16.928,31.013c16.637,1.38,32.948,5.12,48.591,11.144l28.752-20.565
						c3.337-2.383,7.823-2.387,11.161-0.016l37.982,26.992c3.351,2.38,4.813,6.622,3.648,10.553l-9.956,33.905
						c10.831,12.782,19.73,26.959,26.507,42.22l34.849,5.787c4.037,0.663,7.216,3.826,7.903,7.87l7.771,45.953
						c0.687,4.034-1.271,8.068-4.866,10.035l-31.01,16.928c-1.38,16.64-5.12,32.954-11.144,48.591l20.565,28.752
						c2.383,3.337,2.39,7.823,0.016,11.161l-26.992,37.982c-2.377,3.347-6.625,4.81-10.553,3.651l-33.905-9.959
						c-12.781,10.831-26.959,19.73-42.22,26.507l-5.787,34.849c-0.673,4.047-3.839,7.219-7.876,7.903l-45.947,7.774
						C1225.264,1310.192,1224.729,1310.235,1224.204,1310.235z M1148.499,1248.539l3.278,1.34
						c16.456,6.721,33.756,10.689,51.413,11.791l3.539,0.221l19.196,35.169l41.408-7.005l6.559-39.526l3.268-1.373
						c16.317-6.853,31.346-16.287,44.669-28.045l2.657-2.344l38.467,11.299l24.325-34.232l-23.325-32.611l1.34-3.278
						c6.721-16.452,10.689-33.75,11.791-51.41l0.221-3.539l35.166-19.195l-7.001-41.408l-39.526-6.559l-1.373-3.268
						c-6.853-16.317-16.287-31.347-28.046-44.669l-2.344-2.657l11.299-38.467l-34.232-24.325l-32.611,23.322l-3.278-1.34
						c-16.459-6.718-33.756-10.685-51.41-11.788l-3.539-0.221l-19.196-35.169l-41.408,7.005l-6.559,39.523l-3.268,1.373
						c-16.317,6.856-31.346,16.294-44.669,28.049l-2.657,2.344l-38.467-11.299l-24.328,34.235l23.325,32.604l-1.34,3.278
						c-6.718,16.449-10.685,33.75-11.788,51.413l-0.221,3.539l-35.169,19.195l7.005,41.408l39.523,6.559l1.373,3.268
						c6.856,16.317,16.294,31.347,28.049,44.669l2.344,2.657l-11.303,38.464l34.235,24.329L1148.499,1248.539z M1022.053,1154.189
						h0.036H1022.053z M1019.393,1151.538l0.007,0.003L1019.393,1151.538z M1014.279,1108.239l0.003,0.01
						C1014.283,1108.245,1014.279,1108.242,1014.279,1108.239z M1407.741,1044.77l0.007,0.003L1407.741,1044.77z M1061.979,965.598
						l0.013,0.003L1061.979,965.598z M1346.128,946.565c0,0.003-0.003,0.01-0.003,0.013L1346.128,946.565z M1160.188,903.978
						l-0.003,0.007C1160.184,903.985,1160.188,903.981,1160.188,903.978z M1214.14,1216.265c-14.716,0-29.34-2.73-43.098-8.107
						c-3.301-1.291-4.932-5.014-3.641-8.315c1.287-3.304,5.014-4.932,8.315-3.641c17.796,6.955,37.222,8.929,56.18,5.734
						c57.639-9.755,96.601-64.581,86.85-122.224c-9.751-57.639-64.575-96.591-122.224-86.85
						c-57.639,9.755-96.601,64.581-86.85,122.224c1.264,7.457,3.314,14.772,6.094,21.741c1.314,3.294-0.291,7.028-3.582,8.342
						c-3.311,1.314-7.028-0.294-8.342-3.582c-3.116-7.81-5.414-16.007-6.827-24.358c-10.933-64.624,32.746-126.089,97.367-137.022
						c31.304-5.305,62.792,1.915,88.675,20.305c25.88,18.39,43.049,45.759,48.344,77.062
						c10.933,64.621-32.746,126.086-97.367,137.019C1227.433,1215.707,1220.775,1216.261,1214.14,1216.265z"/>
					
						<linearGradient id="SVGID_00000178915883245848807000000002302531413338775688_" gradientUnits="userSpaceOnUse" x1="827.0985" y1="1098.1534" x2="828.7886" y2="1098.1534">
						<stop  offset="0" style="stop-color:#FEBBBA"/>
						<stop  offset="1" style="stop-color:#FF928E"/>
					</linearGradient>
					<path style="fill:url(#SVGID_00000178915883245848807000000002302531413338775688_);" d="M1213.648,1145.953
						c-1.287,0-2.581-0.049-3.882-0.155c-12.725-1.013-24.295-6.926-32.574-16.644c-8.279-9.718-12.28-22.077-11.263-34.803
						c2.096-26.27,25.167-45.983,51.446-43.838c12.725,1.013,24.295,6.926,32.574,16.644c8.279,9.718,12.28,22.077,11.263,34.803
						c-1.013,12.725-6.925,24.296-16.644,32.574C1235.844,1141.969,1224.987,1145.953,1213.648,1145.953z M1213.545,1063.196
						c-18.027,0-33.363,13.904-34.822,32.178l0,0c-0.743,9.306,2.185,18.347,8.239,25.454c6.057,7.107,14.518,11.428,23.827,12.174
						c9.309,0.749,18.347-2.185,25.454-8.24c7.107-6.057,11.428-14.518,12.174-23.827c0.743-9.306-2.185-18.347-8.239-25.454
						c-6.057-7.107-14.518-11.428-23.827-12.174C1215.411,1063.236,1214.473,1063.196,1213.545,1063.196z M1172.326,1094.863h0.033
						H1172.326z"/>
				</g>
				<g>
					
						<linearGradient id="SVGID_00000067957375436416627590000003771884003223630484_" gradientUnits="userSpaceOnUse" x1="827.099" y1="830.3793" x2="828.7891" y2="830.3793">
						<stop  offset="0" style="stop-color:#FEBBBA"/>
						<stop  offset="1" style="stop-color:#FF928E"/>
					</linearGradient>
					<path style="fill:url(#SVGID_00000067957375436416627590000003771884003223630484_);" d="M1453.064,934.235
						c-0.267,0-0.531-0.016-0.802-0.049l-22.232-2.842c-2.674-0.34-4.852-2.347-5.41-4.991l-3.271-15.746
						c-7.002-2.865-13.584-6.635-19.628-11.243l-15.228,5.15c-2.558,0.881-5.404,0.017-7.061-2.136l-13.709-17.723
						c-1.647-2.139-1.766-5.09-0.294-7.348l8.827-13.458c-2.941-7.005-4.935-14.323-5.945-21.826l-14.399-7.12
						c-2.439-1.205-3.839-3.823-3.483-6.516l2.839-22.229c0.353-2.667,2.357-4.833,4.988-5.391l15.746-3.271
						c2.869-7.008,6.638-13.59,11.243-19.628l-5.15-15.228c-0.875-2.562-0.016-5.404,2.136-7.061l17.723-13.706
						c2.136-1.66,5.1-1.773,7.365-0.284l13.442,8.814c7.005-2.941,14.323-4.935,21.826-5.945l7.12-14.399
						c1.195-2.423,3.773-3.816,6.493-3.486l22.236,2.842c2.69,0.343,4.866,2.357,5.41,5.011l3.268,15.723
						c7.005,2.869,13.587,6.638,19.628,11.243l15.228-5.15c2.565-0.872,5.407-0.016,7.061,2.136l13.709,17.723
						c1.654,2.149,1.769,5.107,0.284,7.365l-8.814,13.442c2.938,7.005,4.932,14.323,5.942,21.826l14.399,7.12
						c2.439,1.205,3.839,3.823,3.483,6.516l-2.836,22.213c-0.343,2.687-2.36,4.862-5.014,5.41l-15.723,3.268
						c-2.862,7.001-6.635,13.584-11.243,19.628l5.15,15.228c0.875,2.562,0.016,5.404-2.136,7.061l-17.723,13.709
						c-2.152,1.651-5.113,1.766-7.365,0.284l-13.442-8.814c-7.005,2.938-14.323,4.932-21.826,5.942l-7.12,14.399
						C1457.676,932.882,1455.454,934.235,1453.064,934.235z M1433.568,922.088l17.591,2.248l8.418-17.023l2.644-0.274
						c8.279-0.855,16.333-3.05,23.942-6.52l2.416-1.103l15.888,10.421l14.033-10.85l-6.09-18l1.674-2.063
						c5.278-6.497,9.428-13.739,12.336-21.529l0.928-2.489l18.595-3.865l2.248-17.594l-17.023-8.414l-0.274-2.644
						c-0.855-8.279-3.05-16.333-6.52-23.942l-1.103-2.416l10.421-15.888l-10.85-14.033l-18,6.09l-2.063-1.674
						c-6.49-5.272-13.736-9.424-21.529-12.336l-2.489-0.928l-3.865-18.591l-17.594-2.251l-8.414,17.027l-2.644,0.274
						c-8.279,0.852-16.333,3.047-23.939,6.52l-2.42,1.103l-15.888-10.421l-14.033,10.847l6.09,18l-1.674,2.063
						c-5.272,6.487-9.421,13.732-12.336,21.529l-0.928,2.489l-18.595,3.866l-2.248,17.594l17.027,8.414l0.274,2.644
						c0.852,8.279,3.047,16.333,6.519,23.939l1.103,2.42l-10.425,15.888l10.85,14.033l18-6.09l2.063,1.674
						c6.493,5.278,13.739,9.428,21.529,12.336l2.489,0.928L1433.568,922.088z M1519.246,901.199c0.003,0.003,0.003,0.007,0.003,0.01
						L1519.246,901.199z M1520.349,897.554c-0.003,0.003-0.007,0.007-0.007,0.007L1520.349,897.554z M1387.047,896.485l0.007,0.01
						C1387.05,896.491,1387.047,896.488,1387.047,896.485z M1383.409,895.392c-0.003,0.003-0.007,0.003-0.01,0.003L1383.409,895.392
						z M1548.229,850.564c0,0-0.007,0-0.01,0.003L1548.229,850.564z M1548.484,831.128c0,0.01,0,0.02-0.003,0.026L1548.484,831.128z
						 M1359.982,829.599l-0.003,0.026C1359.979,829.616,1359.979,829.606,1359.982,829.599z M1525.063,765.358l-0.01,0.003
						C1525.056,765.358,1525.059,765.358,1525.063,765.358z M1521.409,764.259c0.003,0.003,0.007,0.007,0.007,0.01L1521.409,764.259
						z M1388.12,763.193l-0.007,0.007C1388.117,763.196,1388.12,763.196,1388.12,763.193z M1389.213,759.545l0.003,0.01
						C1389.213,759.552,1389.213,759.549,1389.213,759.545z M1405.853,749.484l-0.013,0.007
						C1405.843,749.487,1405.85,749.487,1405.853,749.484z M1474.419,736.379c0,0.003,0,0.007,0.003,0.01L1474.419,736.379z
						 M1454.758,889.021c-2.519,0-5.054-0.162-7.592-0.485c-10.59-1.353-20.598-5.542-28.943-12.115
						c-2.09-1.644-2.449-4.671-0.806-6.76c1.647-2.093,4.674-2.449,6.76-0.805c6.978,5.493,15.35,8.995,24.21,10.128
						c13.042,1.69,25.973-1.842,36.381-9.893c10.411-8.051,17.063-19.674,18.73-32.726c3.446-26.946-15.673-51.668-42.62-55.111
						c-26.936-3.459-51.671,15.673-55.114,42.62c-0.449,3.489-0.521,7.018-0.224,10.487c0.228,2.647-1.733,4.981-4.384,5.209
						c-2.624,0.287-4.981-1.733-5.209-4.384c-0.356-4.149-0.267-8.368,0.264-12.534c4.123-32.211,33.674-55.087,65.888-50.951
						c15.604,1.994,29.498,9.946,39.12,22.391c9.622,12.442,13.825,27.89,11.831,43.494c-1.994,15.604-9.946,29.498-22.391,39.12
						C1480.238,884.763,1467.714,889.021,1454.758,889.021z"/>
				</g>
			</g>
		</g>
		<g>
			<g>
				<g>
					<path style="fill:#91B3FA;" d="M1277.889,2880.331l-666.983,0.001v-128.597l666.983,0.001
						C1263.613,2751.736,1263.613,2880.331,1277.889,2880.331z"/>
					
						<linearGradient id="SVGID_00000173141133701906195900000001755992290220071595_" gradientUnits="userSpaceOnUse" x1="1116.6073" y1="2242.4021" x2="849.5663" y2="3077.3252">
						<stop  offset="0" style="stop-color:#4F52FF"/>
						<stop  offset="1" style="stop-color:#4042E2"/>
					</linearGradient>
					<path style="fill:url(#SVGID_00000173141133701906195900000001755992290220071595_);" d="M610.906,2848.152V2789.3
						c0-20.746,13.181-37.564,29.44-37.564h634.731c12.786,0,23.152-9.985,23.152-22.302c0-3.742-3.15-6.776-7.034-6.776H597.482
						c-15.909,0-41.167,24.094-41.167,53.816v82.193c0,28.023,24.521,50.741,39.521,50.741h691.708
						c5.901,0,10.684-4.608,10.684-10.292c0-10.375-8.731-18.786-19.502-18.786h-642.6
						C622.197,2880.331,610.906,2865.924,610.906,2848.152z"/>
				</g>
				<path style="fill:#FFFFFF;" d="M1254.792,2781.329H629.403c-1.773,0-3.209-1.436-3.209-3.209c0-1.772,1.436-3.208,3.209-3.208
					h625.388c1.773,0,3.208,1.436,3.208,3.208C1258,2779.893,1256.564,2781.329,1254.792,2781.329z"/>
				<path style="fill:#FFFFFF;" d="M1254.792,2800.418H629.403c-1.773,0-3.209-1.436-3.209-3.208s1.436-3.208,3.209-3.208h625.388
					c1.773,0,3.208,1.436,3.208,3.208S1256.564,2800.418,1254.792,2800.418z"/>
				<path style="fill:#FFFFFF;" d="M1254.792,2819.505H629.403c-1.773,0-3.209-1.436-3.209-3.209c0-1.772,1.436-3.208,3.209-3.208
					h625.388c1.773,0,3.208,1.436,3.208,3.208C1258,2818.069,1256.564,2819.505,1254.792,2819.505z"/>
				<path style="fill:#FFFFFF;" d="M1254.792,2838.594H629.403c-1.773,0-3.209-1.436-3.209-3.208s1.436-3.208,3.209-3.208h625.388
					c1.773,0,3.208,1.436,3.208,3.208S1256.564,2838.594,1254.792,2838.594z"/>
				<path style="fill:#FFFFFF;" d="M1254.792,2857.681H629.403c-1.773,0-3.209-1.436-3.209-3.209c0-1.772,1.436-3.208,3.209-3.208
					h625.388c1.773,0,3.208,1.436,3.208,3.208C1258,2856.245,1256.564,2857.681,1254.792,2857.681z"/>
			</g>
			<g>
				
					<linearGradient id="SVGID_00000102540708005758295470000011316288388643889314_" gradientUnits="userSpaceOnUse" x1="1097.7904" y1="2481.7288" x2="1001.1034" y2="3023.8687">
					<stop  offset="0" style="stop-color:#4F52FF"/>
					<stop  offset="1" style="stop-color:#4042E2"/>
				</linearGradient>
				<path style="fill:url(#SVGID_00000102540708005758295470000011316288388643889314_);" d="M473.108,3240.33h999.998
					c4.486,0,8.124-3.637,8.124-8.124V3129.5c0-4.487-3.637-8.124-8.124-8.124H473.108c-4.487,0-8.124,3.637-8.124,8.124v102.707
					C464.984,3236.693,468.621,3240.33,473.108,3240.33z"/>
				<g>
					<path style="fill:#7D97F4;" d="M545.801,3122.911h792.593c26.945,0,48.789-21.844,48.789-48.789v-117.295
						c0-26.945-21.843-48.789-48.789-48.789H545.801c-26.945,0-48.789,21.844-48.789,48.789v117.295
						C497.012,3101.068,518.856,3122.911,545.801,3122.911z"/>
					<path style="fill:#91B3FA;" d="M1186.892,3098.216h94.802c2.699,0,4.886-2.188,4.886-4.886v-155.71
						c0-2.699-2.188-4.886-4.886-4.886h-94.802c-2.699,0-4.887,2.188-4.887,4.886v155.71
						C1182.005,3096.028,1184.193,3098.216,1186.892,3098.216z"/>
					<path style="fill:#91B3FA;" d="M1131.361,3098.216h31.289c2.195,0,3.974-1.779,3.974-3.974v-157.534
						c0-2.195-1.779-3.974-3.974-3.974h-31.289c-2.195,0-3.974,1.779-3.974,3.974v157.534
						C1127.386,3096.437,1129.166,3098.216,1131.361,3098.216z"/>
					<path style="fill:#91B3FA;" d="M1054.913,3098.216h31.289c2.195,0,3.974-1.779,3.974-3.974v-157.534
						c0-2.195-1.779-3.974-3.974-3.974h-31.289c-2.195,0-3.974,1.779-3.974,3.974v157.534
						C1050.938,3096.437,1052.718,3098.216,1054.913,3098.216z"/>
				</g>
			</g>
		</g>
		<g>
			
				<linearGradient id="SVGID_00000088104975917767217500000017677926102818048137_" gradientUnits="userSpaceOnUse" x1="7631.4355" y1="3107.0176" x2="7109.3164" y2="3674.9377" gradientTransform="matrix(-1 0 0 1 10380.8506 0)">
				<stop  offset="0" style="stop-color:#09005D"/>
				<stop  offset="1" style="stop-color:#1A0F91"/>
			</linearGradient>
			<path style="fill:url(#SVGID_00000088104975917767217500000017677926102818048137_);" d="M2914.457,3149.324
				c0,0,5.408,30.611,8.058,60.913c1.036,11.842-8.094,22.125-19.972,22.62c-40.352,1.68-126.669,4.948-157.643,3.566
				c-4.656-0.207-7.7-4.974-5.978-9.305l0,0c1.445-3.628,4.229-6.563,7.778-8.194l142.579-65.529L2914.457,3149.324z"/>
			
				<linearGradient id="SVGID_00000114038952642285579780000010425495286439169670_" gradientUnits="userSpaceOnUse" x1="7461.9629" y1="3149.1978" x2="7508.3403" y2="3149.1978" gradientTransform="matrix(-1 0 0 1 10380.8506 0)">
				<stop  offset="0" style="stop-color:#FEBBBA"/>
				<stop  offset="1" style="stop-color:#FF928E"/>
			</linearGradient>
			<path style="fill:url(#SVGID_00000114038952642285579780000010425495286439169670_);" d="M2918.887,3131.338l-4.345,36.615
				c0,0-24.976,11.627-42.032-1.465l10.343-40.804L2918.887,3131.338z"/>
			
				<linearGradient id="SVGID_00000116194322534580695470000006443694632339845559_" gradientUnits="userSpaceOnUse" x1="-4013.1692" y1="11654.1914" x2="-4594.5728" y2="12407.9883" gradientTransform="matrix(-1 0 0 1 5772.0703 0)">
				<stop  offset="0" style="stop-color:#09005D"/>
				<stop  offset="1" style="stop-color:#1A0F91"/>
			</linearGradient>
			<path style="fill:url(#SVGID_00000116194322534580695470000006443694632339845559_);" d="M2915.622,2442.966
				c1.877,9.562,10.072,477.155-39.91,686.699c-0.815,3.419,0.918,6.943,4.172,8.274c7.666,3.132,22.695,7.667,40.707,8.272
				c5.578,0.187,10.579-3.438,12.153-8.792c14.287-48.618,82.749-292.205,91.68-524.897c9.979-260.011,0-8.853,0-8.853
				l-5.853-160.723L2915.622,2442.966z"/>
			
				<linearGradient id="SVGID_00000039829720210661619800000004698343640279493801_" gradientUnits="userSpaceOnUse" x1="7514.3066" y1="2999.334" x2="6992.186" y2="3567.2551" gradientTransform="matrix(-1 0 0 1 10380.8506 0)">
				<stop  offset="0" style="stop-color:#09005D"/>
				<stop  offset="1" style="stop-color:#1A0F91"/>
			</linearGradient>
			<path style="fill:url(#SVGID_00000039829720210661619800000004698343640279493801_);" d="M3078.47,3165.293
				c0,0,8.607,15.454,16.94,56.518c1.505,7.417-3.677,14.514-11.208,15.254c-13.324,1.311-33.837,2.995-50.268,2.882
				c-7.575-0.052-13.486-6.647-12.573-14.167c1.82-14.989,7.49-39.581,25.006-58.747L3078.47,3165.293z"/>
			
				<linearGradient id="SVGID_00000077299529730647172260000016274755543956885901_" gradientUnits="userSpaceOnUse" x1="7294.8198" y1="3146.8196" x2="7334.8628" y2="3146.8196" gradientTransform="matrix(-1 0 0 1 10380.8506 0)">
				<stop  offset="0" style="stop-color:#FEBBBA"/>
				<stop  offset="1" style="stop-color:#FF928E"/>
			</linearGradient>
			<path style="fill:url(#SVGID_00000077299529730647172260000016274755543956885901_);" d="M3086.03,3118.198l-10.151,55.371
				c0,0-10.037,7.467-29.891,2.054l4.845-59.576L3086.03,3118.198z"/>
			
				<linearGradient id="SVGID_00000045611658086555424180000010479857302080282784_" gradientUnits="userSpaceOnUse" x1="-4089.6245" y1="11595.2168" x2="-4671.0259" y2="12349.0107" gradientTransform="matrix(-1 0 0 1 5772.0703 0)">
				<stop  offset="0" style="stop-color:#09005D"/>
				<stop  offset="1" style="stop-color:#1A0F91"/>
			</linearGradient>
			<path style="fill:url(#SVGID_00000045611658086555424180000010479857302080282784_);" d="M3113.452,2457.315
				c40.879,246.706-8.867,609.754-25.645,680.811c-1.027,4.351-4.538,7.684-8.948,8.415c-7.489,1.241-19.818,2.254-31.974-1.276
				c-4.188-1.217-7.13-4.994-7.301-9.352c-2.251-57.448,1.8-410.121-36.29-549.499c-1.93-7.063-6.243-13.223-12.212-17.466
				l-73.929-52.557l-5.668-84.955L3113.452,2457.315z"/>
			<g>
				
					<linearGradient id="SVGID_00000006673158462671937110000007278382965917641861_" gradientUnits="userSpaceOnUse" x1="2777.6372" y1="1836.4015" x2="3225.3076" y2="2663.3496">
					<stop  offset="0" style="stop-color:#4F52FF"/>
					<stop  offset="1" style="stop-color:#4042E2"/>
				</linearGradient>
				<path style="fill:url(#SVGID_00000006673158462671937110000007278382965917641861_);" d="M2852.973,1989.854
					c122.506-2.024,257.677,32.166,257.677,32.166c36.517,213.073,6.385,458.837,6.385,458.837
					c-94.84,24.871-201.827-15.207-201.827-15.207c-15.764-89.059-89.31-339.701-89.31-339.701
					c-59.856-7.428-109.164-24.698-149.77-47.529c30.973-35.903,45.575-81.586,51.917-108.592
					C2771.358,1983.289,2815.187,1990.479,2852.973,1989.854z"/>
				
					<linearGradient id="SVGID_00000152975217680823089670000002062456177773972131_" gradientUnits="userSpaceOnUse" x1="14329.2695" y1="6224.3647" x2="14653.7734" y2="6305.4902" gradientTransform="matrix(1 0 0 1 5405.5679 0)">
					<stop  offset="0" style="stop-color:#FEBBBA"/>
					<stop  offset="1" style="stop-color:#FF928E"/>
				</linearGradient>
				<path style="fill:url(#SVGID_00000152975217680823089670000002062456177773972131_);" d="M2491.112,1809.41
					c12.034-14.535,27.266-7.659,27.266-7.659c18.028,76.152,112.554,137.897,209.667,168.078
					c-6.342,27.005-20.944,72.689-51.917,108.592C2514.96,1987.802,2491.112,1809.41,2491.112,1809.41z"/>
			</g>
			<g>
				
					<linearGradient id="SVGID_00000109747309337600566200000007581477266037671855_" gradientUnits="userSpaceOnUse" x1="14366.5781" y1="6075.1147" x2="14691.0811" y2="6156.2402" gradientTransform="matrix(1 0 0 1 5405.5679 0)">
					<stop  offset="0" style="stop-color:#FEBBBA"/>
					<stop  offset="1" style="stop-color:#FF928E"/>
				</linearGradient>
				<path style="fill:url(#SVGID_00000109747309337600566200000007581477266037671855_);" d="M2494.033,1813.106
					c-1.26,4.003,13.323,10.099,21.908-6.273c0.3-7.846,5.072-41.463,0.383-47.855c-24.972-34.045-73.387-76.723-73.387-76.723
					c-8.183,8.074-1.441,16.005-1.441,16.005l23.487,24.467c-4.913,8.878-10.905,16.372-13.713,27.109
					c-2.127,8.132-0.826,16.823,3.281,24.223c4.123,7.427,9.748,17.083,15.065,24.639
					C2479.681,1812.999,2494.033,1813.106,2494.033,1813.106z"/>
				
					<linearGradient id="SVGID_00000179609848819670883280000001882032305675408005_" gradientUnits="userSpaceOnUse" x1="-2884.9985" y1="1837.0665" x2="-2946.6345" y2="1712.7317" gradientTransform="matrix(1 0 0 1 5405.5679 0)">
					<stop  offset="0" style="stop-color:#FEBBBA"/>
					<stop  offset="1" style="stop-color:#FF928E"/>
				</linearGradient>
				<path style="fill:url(#SVGID_00000179609848819670883280000001882032305675408005_);" d="M2475.255,1738.601l21.404,18.144
					l6.72,18.064l-19.083,21.17c0,0-6.416-35.843-11.185-43.601C2468.342,1744.621,2470.815,1740.87,2475.255,1738.601z"/>
			</g>
			
				<linearGradient id="SVGID_00000074419231133574190380000017091937943774448282_" gradientUnits="userSpaceOnUse" x1="2932.6902" y1="1752.4624" x2="3380.3618" y2="2579.4126">
				<stop  offset="0" style="stop-color:#4F52FF"/>
				<stop  offset="1" style="stop-color:#4042E2"/>
			</linearGradient>
			<path style="fill:url(#SVGID_00000074419231133574190380000017091937943774448282_);" d="M3063.661,2140.643l46.988-118.622
				c0,0,114.428,77.748,133.246,176.325c-21.621,1.592-60.964,7.216-99.474,26.661
				C3135.958,2178.459,3063.661,2140.643,3063.661,2140.643z"/>
			
				<linearGradient id="SVGID_00000142163222781131448480000015355666092850745514_" gradientUnits="userSpaceOnUse" x1="7134.3467" y1="2274.8821" x2="7434.188" y2="2274.8821" gradientTransform="matrix(-1 0 0 1 10380.8506 0)">
				<stop  offset="0" style="stop-color:#FEBBBA"/>
				<stop  offset="1" style="stop-color:#FF928E"/>
			</linearGradient>
			<path style="fill:url(#SVGID_00000142163222781131448480000015355666092850745514_);" d="M2963.665,2252.262
				c0,0,128.472,72.606,171.822,10.609c9-12.874,11.152-25.667,8.935-37.865c38.51-19.445,77.853-25.069,99.474-26.661
				c5.674,29.718,2.674,61.324-14.789,93.269c-75.932,138.901-282.444-7.677-282.444-7.677L2963.665,2252.262z"/>
			<g>
				<path style="fill:#BDD0FB;" d="M2979.101,2344.117l-70.117-244.86c-0.795-2.779-3.166-4.807-6.039-5.141
					c-12.704-1.482-49.513-5.643-92.015-9.238c-51.195-4.331-110.647-7.839-146.174-4.854c-5.05,0.423-8.103,5.766-5.857,10.31
					c20.203,40.872,103.304,207.132,144.918,261.596c1.38,1.804,3.511,2.859,5.782,2.838l162.68-1.513
					C2977.013,2353.209,2980.404,2348.667,2979.101,2344.117z"/>
				<path style="fill:#91B3FA;" d="M2803.657,2063.648l-50.835-8.47c-2.708-0.451-4.925,2.136-4.065,4.742l5.032,15.249
					c0.438,1.328,1.596,2.288,2.982,2.473l48.919,6.535c2.53,0.338,4.617-1.962,4.035-4.448l-3.115-13.314
					C2806.275,2064.982,2805.11,2063.891,2803.657,2063.648z"/>
				<path style="fill:#7D97F4;" d="M2841.721,2106.685l-4.188-21.814c-0.42-2.188-2.227-3.841-4.443-4.066l-102.675-10.419
					c-3.456-0.351-6.223,2.816-5.413,6.194l6.529,27.182c0.522,2.175,2.415,3.746,4.649,3.858l100.334,5.051
					C2839.781,2112.835,2842.337,2109.896,2841.721,2106.685z"/>
				
					<linearGradient id="SVGID_00000172406935781396343730000013573057351312336811_" gradientUnits="userSpaceOnUse" x1="7411.9258" y1="2243.4438" x2="7505.3384" y2="2243.4438" gradientTransform="matrix(-1 0 0 1 10380.8506 0)">
					<stop  offset="0" style="stop-color:#FEBBBA"/>
					<stop  offset="1" style="stop-color:#FF928E"/>
				</linearGradient>
				<path style="fill:url(#SVGID_00000172406935781396343730000013573057351312336811_);" d="M2962.16,2284.958
					c0,0,9.767-40.163,5.828-54.411c-3.94-14.249-11.574-32.569-37.018-28.498c-25.444,4.071-55.459,14.79-55.459,14.79
					s1.516,18.56,20.854,12.572l-11.992,9.279c0,0,1.714,14.861,18.049,6.921l-11.154,12.306c0,0,7.015,12.205,19.033,4.377
					C2922.319,2254.465,2928.08,2289.795,2962.16,2284.958z"/>
			</g>
			
				<linearGradient id="SVGID_00000137829876880540976310000016064254547886621871_" gradientUnits="userSpaceOnUse" x1="7364.583" y1="1954.3341" x2="7483.1304" y2="1954.3341" gradientTransform="matrix(-1 0 0 1 10380.8506 0)">
				<stop  offset="0" style="stop-color:#FEBBBA"/>
				<stop  offset="1" style="stop-color:#FF928E"/>
			</linearGradient>
			<path style="fill:url(#SVGID_00000137829876880540976310000016064254547886621871_);" d="M2977.061,1890.399l38.979,112.726
				c0.645,1.867-0.122,3.935-1.851,4.891c-10.625,5.875-48.907,22.856-95.039-6.393c-4.805-3.047-8.077-8.016-8.807-13.66
				l-12.623-97.564H2977.061z"/>
			<g>
				
					<linearGradient id="SVGID_00000178194193600882944250000002094209064529011101_" gradientUnits="userSpaceOnUse" x1="-6.8008" y1="3589.2227" x2="-51.1006" y2="3443.1113" gradientTransform="matrix(-0.746 -0.6659 -0.6659 0.746 5254.5146 -803.1727)">
					<stop  offset="0" style="stop-color:#FEBBBA"/>
					<stop  offset="1" style="stop-color:#FF928E"/>
				</linearGradient>
				<path style="fill:url(#SVGID_00000178194193600882944250000002094209064529011101_);" d="M2892.247,1786.011
					c0,0-42.803,80.573-37.317,113.121c5.486,32.547,58.535,30.21,104.858,3.776l32.37-87.001L2892.247,1786.011z"/>
				
					<linearGradient id="SVGID_00000175322823695105662740000012657929190360536247_" gradientUnits="userSpaceOnUse" x1="2690.708" y1="1408.2667" x2="3017.2695" y2="1875.5">
					<stop  offset="0" style="stop-color:#09005D"/>
					<stop  offset="1" style="stop-color:#1A0F91"/>
				</linearGradient>
				<path style="fill:url(#SVGID_00000175322823695105662740000012657929190360536247_);" d="M2957.74,1860.182
					c-1.882-0.834-2.577-3.137-1.449-4.86c3.43-5.239,9.858-15.927,11.909-25.284c0,0,7.695-4.929-19.585-11.458
					c-27.279-6.53-67.96-16.665-76.511-39.884c-8.336-22.639,13.568-79.572,48.514-34.208c1.329,1.725,3.934,1.763,5.262,0.036
					c5.729-7.456,20.791-22.932,41.701-13.55c19.568,8.78,21.772,23.119,21.503,30.347c-0.078,2.125,1.823,3.779,3.912,3.38
					c9.893-1.887,33.635-3.508,44.717,20.847c9.128,20.061,3.196,31.417-2.207,36.971c-1.751,1.8-0.984,4.763,1.417,5.497
					c6.501,1.99,14.898,7.504,14.058,22.738c-1.162,21.06-24.708,19.205-31.413,18.245c-1.099-0.157-2.206,0.22-2.949,1.042
					c-5.748,6.362-31.647,33.372-59.677,36.628c-2.428,0.282-4.309-2.115-3.514-4.425l12.131-35.263
					c0.563-1.637-0.22-3.434-1.803-4.136L2957.74,1860.182z"/>
				
					<linearGradient id="SVGID_00000011020361485366053780000002186478521684617620_" gradientUnits="userSpaceOnUse" x1="-52.086" y1="3588.542" x2="-91.9431" y2="3457.084" gradientTransform="matrix(-0.746 -0.6659 -0.6659 0.746 5254.5146 -803.1727)">
					<stop  offset="0" style="stop-color:#FEBBBA"/>
					<stop  offset="1" style="stop-color:#FF928E"/>
				</linearGradient>
				<path style="fill:url(#SVGID_00000011020361485366053780000002186478521684617620_);" d="M2952.865,1865.188
					c0,0,30.476-20.91,32.703-3.301c2.227,17.608-27.444,25.505-42.14,18.941L2952.865,1865.188z"/>
			</g>
		</g>
		<g>
			<g>
				
					<linearGradient id="SVGID_00000036930543715114319750000006376662866685620116_" gradientUnits="userSpaceOnUse" x1="7970.0308" y1="2732.5144" x2="8056.3975" y2="2732.5144" gradientTransform="matrix(1 -0.0047 0.0047 1 -7097.1714 4.0466)">
					<stop  offset="0" style="stop-color:#09005D"/>
					<stop  offset="1" style="stop-color:#1A0F91"/>
				</linearGradient>
				<path style="fill-rule:evenodd;clip-rule:evenodd;fill:url(#SVGID_00000036930543715114319750000006376662866685620116_);" d="
					M890.46,2678.829c0,0-5.036,18.701-4.69,32.512c0.055,2.169,1.664,3.975,3.814,4.271c12.623,1.741,55.717,6.907,79.389,0.012
					c1.907-0.556,3.211-2.333,3.153-4.318c-0.216-7.431-5.446-24.871-48.689-29.323L890.46,2678.829z"/>
				
					<linearGradient id="SVGID_00000137099546495197676360000013221458147650979256_" gradientUnits="userSpaceOnUse" x1="8175.1123" y1="2118.4812" x2="8191.4482" y2="1719.6116" gradientTransform="matrix(0.9977 0.0685 -0.0685 0.9977 -7101.8945 -47.5666)">
					<stop  offset="0" style="stop-color:#FEBBBA"/>
					<stop  offset="1" style="stop-color:#FF928E"/>
				</linearGradient>
				<path style="fill-rule:evenodd;clip-rule:evenodd;fill:url(#SVGID_00000137099546495197676360000013221458147650979256_);" d="
					M964.863,2392.794c5.322,3.475-34.825,285.392-44.552,287.44c0,0-11.125,10.34-28.294-1.445
					c9.912-91.882,15.945-185.076,10.61-280.321L964.863,2392.794z"/>
				
					<linearGradient id="SVGID_00000121978732283412809850000006637256928647760539_" gradientUnits="userSpaceOnUse" x1="7873.561" y1="2737.8235" x2="7959.9277" y2="2737.8235" gradientTransform="matrix(1 -0.0047 0.0047 1 -7097.1714 4.0466)">
					<stop  offset="0" style="stop-color:#09005D"/>
					<stop  offset="1" style="stop-color:#1A0F91"/>
				</linearGradient>
				<path style="fill-rule:evenodd;clip-rule:evenodd;fill:url(#SVGID_00000121978732283412809850000006637256928647760539_);" d="
					M794.016,2684.592c0,0-5.036,18.7-4.69,32.512c0.055,2.169,1.664,3.975,3.814,4.271c12.623,1.741,55.717,6.907,79.389,0.012
					c1.907-0.556,3.211-2.333,3.153-4.318c-0.216-7.431-5.446-24.871-48.689-29.324L794.016,2684.592z"/>
				
					<linearGradient id="SVGID_00000164506896683732932750000013682823183271484304_" gradientUnits="userSpaceOnUse" x1="8079.2935" y1="2130.8357" x2="8095.6294" y2="1731.9661" gradientTransform="matrix(0.9977 0.0685 -0.0685 0.9977 -7101.8945 -47.5666)">
					<stop  offset="0" style="stop-color:#FEBBBA"/>
					<stop  offset="1" style="stop-color:#FF928E"/>
				</linearGradient>
				<path style="fill-rule:evenodd;clip-rule:evenodd;fill:url(#SVGID_00000164506896683732932750000013682823183271484304_);" d="
					M868.418,2398.556c5.322,3.475-34.825,285.391-44.552,287.44c0,0-11.125,10.34-28.294-1.445
					c9.912-91.882,15.945-185.076,10.61-280.321L868.418,2398.556z"/>
				
					<linearGradient id="SVGID_00000141424284399221083040000009557726775830295997_" gradientUnits="userSpaceOnUse" x1="8050.9604" y1="1816.5795" x2="8225.9717" y2="1816.5795" gradientTransform="matrix(0.9977 0.0685 -0.0685 0.9977 -7101.8945 -47.5666)">
					<stop  offset="0" style="stop-color:#09005D"/>
					<stop  offset="1" style="stop-color:#1A0F91"/>
				</linearGradient>
				<path style="fill-rule:evenodd;clip-rule:evenodd;fill:url(#SVGID_00000141424284399221083040000009557726775830295997_);" d="
					M824.055,2221.688c0,0,130.926,5.989,162.108,16.937c0,0-3.843,106.445-16.643,171.857c-0.496,2.537-2.414,4.547-4.932,5.131
					c-8.401,1.948-29.548,4.733-63.067-4.653c-2.979-0.835-4.961-3.664-4.75-6.751l3.459-42.399c0.195-2.846-1.954-5.312-4.8-5.508
					l-3.506-0.531c-2.967-0.204-5.493,2.134-5.52,5.107l-6.619,43c-0.025,2.784-1.801,5.245-4.438,6.138
					c-9.841,3.334-35.451,9.556-69.222-0.733c-2.721-0.829-4.609-3.339-4.628-6.183
					C801.154,2350.906,810.528,2288.483,824.055,2221.688z"/>
			</g>
			
				<linearGradient id="SVGID_00000016761246657423667410000007526475453552689831_" gradientUnits="userSpaceOnUse" x1="8049.1284" y1="1703.6473" x2="8097.6333" y2="1769.7905" gradientTransform="matrix(0.9977 0.0685 -0.0685 0.9977 -7101.8945 -47.5666)">
				<stop  offset="0" style="stop-color:#FDF53F"/>
				<stop  offset="1" style="stop-color:#D93C65"/>
			</linearGradient>
			<path style="fill-rule:evenodd;clip-rule:evenodd;fill:url(#SVGID_00000016761246657423667410000007526475453552689831_);" d="
				M873.133,2230.866c0,0-16.549,46.013-56.487,49.202l8.83-52.473C825.476,2227.595,856.409,2227.365,873.133,2230.866z"/>
			<g>
				
					<linearGradient id="SVGID_00000180348743160361158300000016574678265246099640_" gradientUnits="userSpaceOnUse" x1="995.3629" y1="1760.4366" x2="1181.2756" y2="2619.0183">
					<stop  offset="0" style="stop-color:#4F52FF"/>
					<stop  offset="1" style="stop-color:#4042E2"/>
				</linearGradient>
				<path style="fill:url(#SVGID_00000180348743160361158300000016574678265246099640_);" d="M1169.312,2027.001
					c-58.213,13.458-130.182,5.223-219.642-30.585l-4.108,81.857c83.926,24.009,162.639,22.649,231.899-24.697L1169.312,2027.001z"
					/>
				
					<linearGradient id="SVGID_00000098199499667819337010000009214894996861597080_" gradientUnits="userSpaceOnUse" x1="1184.7439" y1="1758.8114" x2="779.1147" y2="2353.7339">
					<stop  offset="0" style="stop-color:#4F52FF"/>
					<stop  offset="1" style="stop-color:#4042E2"/>
				</linearGradient>
				<path style="fill:url(#SVGID_00000098199499667819337010000009214894996861597080_);" d="M981.365,2014.877
					c-11.101-20.493-47.506-23.247-67.583-24.078c-29.493-1.22-53.621,1.714-73.127,26.835c-3.22,4.147-6.012,8.606-8.771,13.072
					c-11.395,18.442-15.142,45.602-21.161,66.35c-11.909,41.047-23.614,82.175-34.276,123.566
					c-1.569,6.092-20.052,62.595-12.743,66.688c16.446,57.076,192.616,38.323,247.651-28.054
					C1004.492,2162.46,999.13,2058.326,981.365,2014.877z"/>
				<g>
					
						<linearGradient id="SVGID_00000158721901429389790020000006366136411544717461_" gradientUnits="userSpaceOnUse" x1="6918.9331" y1="4366.8838" x2="6893.4653" y2="4163.1431" gradientTransform="matrix(0.9402 -0.3405 0.3405 0.9402 -6953.6841 218.113)">
						<stop  offset="0" style="stop-color:#FEBBBA"/>
						<stop  offset="1" style="stop-color:#FF928E"/>
					</linearGradient>
					<path style="fill-rule:evenodd;clip-rule:evenodd;fill:url(#SVGID_00000158721901429389790020000006366136411544717461_);" d="
						M998.588,1908.484c0,0-5.039-14.215,7.803-16.748c12.843-2.534,0.591,35.212,0.591,35.212L998.588,1908.484z"/>
					
						<linearGradient id="SVGID_00000124873669039528018330000011528641134360296622_" gradientUnits="userSpaceOnUse" x1="7984.752" y1="2087.3193" x2="8034.4829" y2="1900.8269" gradientTransform="matrix(1 0 0 1 -7093.7188 0)">
						<stop  offset="0" style="stop-color:#FEBBBA"/>
						<stop  offset="1" style="stop-color:#FF928E"/>
					</linearGradient>
					<path style="fill-rule:evenodd;clip-rule:evenodd;fill:url(#SVGID_00000124873669039528018330000011528641134360296622_);" d="
						M895.908,1947.056l-5.073,55.707c0,0,29.403,17.18,54.699,2.161l-4.493-48.657L895.908,1947.056z"/>
					
						<linearGradient id="SVGID_00000155857586403128939720000001961374292616682911_" gradientUnits="userSpaceOnUse" x1="1035.0984" y1="1726.6378" x2="822.1535" y2="2030.8452">
						<stop  offset="0" style="stop-color:#4F52FF"/>
						<stop  offset="1" style="stop-color:#4042E2"/>
					</linearGradient>
					<path style="fill-rule:evenodd;clip-rule:evenodd;fill:url(#SVGID_00000155857586403128939720000001961374292616682911_);" d="
						M1004.526,1907.448c0,0,12.886-22.066-3.528-33.67c0,0,8.804-19.417-7.848-33.462c0,0-26.519-62.071-82.191-18.53
						c0,0-47.933-14.254-63.353,45.356c0,0-15.939,8.945-8.639,31.215c0,0-1.79,82.613,70.565,54.765L1004.526,1907.448z"/>
					
						<linearGradient id="SVGID_00000040535556269667204650000013306193005267326868_" gradientUnits="userSpaceOnUse" x1="6860.0947" y1="4400.4473" x2="6839.8823" y2="4238.7485" gradientTransform="matrix(0.9402 -0.3405 0.3405 0.9402 -6953.6841 218.113)">
						<stop  offset="0" style="stop-color:#FEBBBA"/>
						<stop  offset="1" style="stop-color:#FF928E"/>
					</linearGradient>
					<path style="fill-rule:evenodd;clip-rule:evenodd;fill:url(#SVGID_00000040535556269667204650000013306193005267326868_);" d="
						M980.699,1861.303c0,0,61.334,92.419-2.036,120.728c-59.808,26.718-85.01-34.652-85.01-34.652s-26.299-27.248-17.466-48.227
						C885.02,1878.173,965.749,1849.819,980.699,1861.303z"/>
					
						<linearGradient id="SVGID_00000132075930163188994430000002420729782847822989_" gradientUnits="userSpaceOnUse" x1="1038.9908" y1="1729.3623" x2="826.0459" y2="2033.5696">
						<stop  offset="0" style="stop-color:#4F52FF"/>
						<stop  offset="1" style="stop-color:#4042E2"/>
					</linearGradient>
					<path style="fill-rule:evenodd;clip-rule:evenodd;fill:url(#SVGID_00000132075930163188994430000002420729782847822989_);" d="
						M887.672,1932.823c0,0,60.03-19.002,54.896-54.455c0,0,10.399,1.038,13.59-11.21c0,0,29.459,26.501,37.222,7.97
						c0,0-5.158-45.885-41.148-31.016c-35.99,14.87-68.864,29.993-78.498,40.579C864.099,1895.278,856.1,1920.896,887.672,1932.823z
						"/>
					
						<linearGradient id="SVGID_00000142165095926737846820000014608240316714967951_" gradientUnits="userSpaceOnUse" x1="6794.9307" y1="4362.4663" x2="6775.0376" y2="4203.3184" gradientTransform="matrix(0.9402 -0.3405 0.3405 0.9402 -6953.6841 218.113)">
						<stop  offset="0" style="stop-color:#FEBBBA"/>
						<stop  offset="1" style="stop-color:#FF928E"/>
					</linearGradient>
					<path style="fill-rule:evenodd;clip-rule:evenodd;fill:url(#SVGID_00000142165095926737846820000014608240316714967951_);" d="
						M901.524,1955.63l-10.663-29.315c0,0-20.605-9.469-17.892,6.48C875.682,1948.742,894.199,1957.552,901.524,1955.63z"/>
				</g>
			</g>
			<g>
				<g>
					<path style="fill:#7D97F4;" d="M847.03,2390.218l-10.763,16.892c-18.469,28.986-17.597,62.579,1.948,75.031l23.235,14.805
						c19.545,12.452,50.36-0.951,68.828-29.938l10.763-16.892c0.712-1.118,1.402-2.252,2.065-3.4l297.453-514.567l-50.622-32.253
						l-340.699,487.013C848.479,2387.996,847.742,2389.1,847.03,2390.218z M871.402,2403.88
						c13.904-21.823,35.688-32.817,48.656-24.556c12.968,8.262,12.208,32.652-1.697,54.476
						c-13.905,21.823-35.689,32.817-48.657,24.555C856.737,2450.092,857.497,2425.703,871.402,2403.88z"/>
				</g>
				<path style="fill:#7D97F4;" d="M1273.455,1712.494l-62.45,98.016c-4.447,6.979-5.402,15.626-2.586,23.407l14.433,39.886
					c4.12,11.385,15.392,18.567,27.452,17.491l42.249-3.772c8.242-0.736,15.676-5.255,20.122-12.234l62.45-98.016
					c9.419-14.784,32.095-11.782,36.947,5.063c11.609,40.298,6.21,85.918-18.637,124.917
					c-44.911,70.487-130.767,83.957-198.567,40.759c-67.799-43.198-91.867-126.706-46.956-197.193
					c24.848-38.999,63.914-63.167,105.344-69.672C1270.573,1678.427,1282.874,1697.71,1273.455,1712.494z"/>
				
					<linearGradient id="SVGID_00000096749258485851742780000003219104986258128828_" gradientUnits="userSpaceOnUse" x1="1134.2587" y1="1832.674" x2="1427.1588" y2="1832.674">
					<stop  offset="0" style="stop-color:#DAE3FE"/>
					<stop  offset="1" style="stop-color:#E9EFFD"/>
				</linearGradient>
				<path style="fill:url(#SVGID_00000096749258485851742780000003219104986258128828_);" d="M1282.692,1718.38l-62.45,98.015
					c-4.446,6.979-5.402,15.626-2.586,23.407l14.434,39.887c4.12,11.385,15.391,18.567,27.451,17.49l42.249-3.771
					c8.242-0.736,15.676-5.255,20.123-12.234l62.45-98.016c9.42-14.784,32.095-11.782,36.948,5.063
					c11.609,40.298,6.21,85.918-18.638,124.917c-44.911,70.487-130.767,83.957-198.567,40.759
					c-67.799-43.198-91.867-126.706-46.957-197.193c24.848-38.999,63.915-63.167,105.344-69.672
					C1279.811,1684.312,1292.112,1703.595,1282.692,1718.38z"/>
				
					<linearGradient id="SVGID_00000038394019728853927120000018419270950771981469_" gradientUnits="userSpaceOnUse" x1="830.3347" y1="2205.4429" x2="1247.9279" y2="2205.4429">
					<stop  offset="0" style="stop-color:#DAE3FE"/>
					<stop  offset="1" style="stop-color:#E9EFFD"/>
				</linearGradient>
				<path style="fill:url(#SVGID_00000038394019728853927120000018419270950771981469_);" d="M854.398,2394.912l-10.763,16.892
					c-18.469,28.987-17.597,62.579,1.948,75.032l23.236,14.805c19.545,12.452,50.36-0.951,68.828-29.938l10.763-16.892
					c0.712-1.118,1.402-2.252,2.065-3.4l297.453-514.566l-50.622-32.253l-340.699,487.013
					C855.848,2392.691,855.111,2393.794,854.398,2394.912z M878.77,2408.575c13.904-21.823,35.689-32.818,48.656-24.555
					s12.208,32.651-1.697,54.475c-13.905,21.823-35.689,32.817-48.656,24.555C864.105,2454.787,864.865,2430.398,878.77,2408.575z"
					/>
			</g>
			<g>
				
					<linearGradient id="SVGID_00000059301537861768133300000016005935207255499448_" gradientUnits="userSpaceOnUse" x1="1262.5948" y1="2064.8684" x2="985.4145" y2="2281.2041">
					<stop  offset="0" style="stop-color:#FEBBBA"/>
					<stop  offset="1" style="stop-color:#FF928E"/>
				</linearGradient>
				<path style="fill:url(#SVGID_00000059301537861768133300000016005935207255499448_);" d="M1130.299,2208.867
					c0.501,7.546-12.565,14.219-18.037,17.213c-15.227,8.332-33.479,11.882-50.195,12.085c-2.368,0.029-4.735,0.058-7.103,0.086
					c-12.52,0.152-23.361-4.107-35.418-7.3c-2.516-0.67-5.185-1.434-6.902-3.39c-3.456-3.938,2.25-12.153,4.253-15.758
					c0.515-0.927,1.068-1.895,1.971-2.453c0.891-0.551,1.99-0.618,3.037-0.653c7.835-0.261,14.694,2.397,22.511,2.612
					c4.271,0.117,8.542,0.235,12.812,0.352c3.566,0.098,7.166,0.194,10.668-0.486c8.684-1.684,16.188-8.004,25.024-8.417
					c0.338-0.016,0.687-0.021,1.003,0.101c0.993,0.382,1.126,1.837,0.549,2.73c-0.572,0.884-1.568,1.375-2.474,1.915
					c-2.408,1.434-4.113,3.496-4.26,6.323c15.271-3.904,30.912-6.606,46.877-7.072c-2.422,3.374-5.159,6.435-8.15,9.203
					L1130.299,2208.867z"/>
				
					<linearGradient id="SVGID_00000029734033381561532230000000579222139044168329_" gradientUnits="userSpaceOnUse" x1="969.4664" y1="2088.7776" x2="1197.6329" y2="1774.4148">
					<stop  offset="0" style="stop-color:#4F52FF"/>
					<stop  offset="1" style="stop-color:#4042E2"/>
				</linearGradient>
				<path style="fill:url(#SVGID_00000029734033381561532230000000579222139044168329_);" d="M1037.177,2208.588
					c-55.877-24.559-109.542-75.173-160.396-158.908c-42.648-30.458-55.001,6.177-42.934,63.04
					c53.65,70.752,107.608,118.769,193.512,122.477C1024.735,2224.285,1027.887,2215.373,1037.177,2208.588z"/>
			</g>
			
				<linearGradient id="SVGID_00000021820833903267683010000002118619468816665770_" gradientUnits="userSpaceOnUse" x1="1155.4056" y1="2056.4751" x2="1192.6304" y2="2056.4751">
				<stop  offset="0" style="stop-color:#FEBBBA"/>
				<stop  offset="1" style="stop-color:#FF928E"/>
			</linearGradient>
			<path style="fill:url(#SVGID_00000021820833903267683010000002118619468816665770_);" d="M1192.63,2038.684
				c-1.707,9.198-9.197,22.244-20.287,37.685c-2.118,2.948-6.707,1.581-6.933-2.042c-0.687-11.002-3.36-21.083-10.005-29.323
				C1169.356,2039.978,1186.268,2029.353,1192.63,2038.684z"/>
		</g>
	</g>
</g>
</svg>
